<svg xmlns="http://www.w3.org/2000/svg" fill="none" viewBox="0 0 1286 1376"><g fill="#D5FF00" filter="url(#a)"><path d="M632.57 824.11c-.1.05-.24-.18-.34-.24-.19-.22.34.54.34.24Z"/><path d="M1045.1 260.13c.58-1.77-3.29-1.34-3.47-2.55-.14-.78-.48-1.35-1.18-.68-1.09 1.66-2.47 3.13-2.57 5.4-.89 1.92-4.23 2.02-3.59 5.06-2.42 1.95-4.86 6-6.96 8.86-.77.93 1.78 2.7.23 3.3-2.74 1.05-2.82 2.9-5.13 4.53 3.58-7.44 7.48-15.57 10.9-22.95l4.53-8.3c-.2-.94-2-.9-2.61-2.55.11-.15 2.12-.47 1.95-.98-3.29-5.57-10.81 1.33-15.68 1.72-2.81.47-5.4 1.86-8.25 1.83-1.56.54-2.86 2.17-4.77 1.2-2.54 1.64-5.76 1.86-8.35 3.63-1.4-.57-2.33-.17-3.37.8-.66.3-1.56-.42-2.16.33-1.48 1.56-4.23-1.13-5.62.77-2.92-.17-4.96 3-8.2 2.03-2.77-.3-4.1 3.19-6.57 3.78-4.38-.22-7.77 2.66-11.31 3.85-1.25 2.94-6.52-1.62-6.57 3.17-2.9-2.42-.45 1.28-2.05.81-1.41-.77-2.64-1.2-3.33.46-.68 1.52-3.12-.2-3.28 2.04-.12.55-.3 1-.94.84-2.18-.79-2.56 1.85-4.33 2.03-1.14 0-2.15.43-2.68 1.55-1.5 1.54-3.78 1.33-5.7 2.22-1.28.35-3.1-.4-3.6 1.57-2.03.18-3.8.99-5.85 1.23-2.75 1.47-4.88 4.61-8.44 5.18-1.78 2.4-4.31 2.39-6.64 3.6-1.8 1.35-2.94 3.8-5.33 4a4.02 4.02 0 0 0-3.87 2.9c-.18.52-.72.52-1.24.49-1.13.66-1.97 1.7-3.5 1.89-.46 1.45-2.23.81-2.67 2.32-1.67.57-3.14 1.06-4 2.76-2.9.55-4.38 3.44-7.33 3.66-1.25.37-1.08 2.4-2.72 2.18-2.07.64-3.22 3.17-5.56 3.72-.97.35-1.28 1.27-1.66 2.16-1.48.3-3.49.09-3.86 2.05-2.08 4.2-8.74 5.5-11.15 10.35-4.05 1.04-5.53 5.78-9.53 6.97-1.49.92-1.07 3.78-2.9 4.57a37.99 37.99 0 0 0-8.56 7.35c-.87 1.51-.68 3.7-3.05 3.7-1.73.66-1.72 3.69-3.53 4.62-.84.86-2.86.3-2.9 1.99-1.6 3.9-1.78 1.74-3.43 1.35-2.26 3.1-3.73 7.69-6.97 9.36-.74 2.25-3.67 2.2-3.85 4.88-1.73 2.69-5.14 3.76-6.15 6.95-2.11.11-1.72 2.17-3.1 3.07-1.5.29-1.91 1.84-2.52 3.05-1.73.65-2.83 1.85-4.35 2.67-1.53 2.17-4.37 3.39-5.9 5.64-.2 1.58-2.34 1.1-2.78 2.6-.25 2.27-2.12 2.47-3.32 3.84-5.13 2.8-8.3 8.24-11.93 12.52-.8.59-2.03.7-2.12 2-.98.59-2.52.6-2.37 2.35.02.27-.36.45-.64.55-3.6 1.33-5.38 4.88-7.51 7.6-.14.42-.34 1.02-.74 1.01-1.74-.04-2.13 1.56-3.56 1.84-2.65.45-2.76 3.45-4.92 4.6-3.1 1.05-3.38 4.91-5.73 6.36-1.4.22-.83 2.1-2.17 2.55-1.4 1.43-3.73 2.08-4.02 4.38-.13 1.24-.8 1.87-1.95 2.19-.57.15-.05 1.3-.75 1.51-3.53 1.02-2.78 5.1-6.86 6.34-.64 2.52-4 2.45-4.29 5.29-.35 1.12-1.46 1.62-2.1 2.63-.58.35-.36 1.48-1.28 1.66-1.04.27-.54 1.67-1.36 2.17-5.3 1.06-5.5 7.74-9.07 10.74-1.05 1.3-3.54.98-3.27 3.25.24 1.65-1.9 1.36-2.22 2.49-.52 1.31-2.24 1.77-2.75 3.14-.07.97-1.34 1.08-1.25 2.23-.26 1.43-2.25 1.32-2.25 3.05-1.52 2.1-4.73 2.53-5.28 5.6.1 2.1-1.96 2.88-1.75 5.06.03.27-.34.5-.64.55-2.04.19-2.06 2.4-3.96 2.75-.98.35-.44 1.72-1.67 1.86-1.27.4-2.1 1.26-2.22 2.56-.4 3.72-4.37 4.92-5.03 8.6-1.53 1.34-3.21 2.88-5.1 4.06-.57 1.2-1.1 2.34-2.44 2.9-1.69 1.7-4.43 5.37-.53 6.35.83.25 1.3.57 1.42.97.62 3.05 3.87-2.67 3.78-4.23.9-1.78 4.18-1.6 3.63-4.59.05-1.07 2.22-.63 2.38-1.8.32-.81.4-1.8 1.46-2.04l3.24-4.06c.75-.78-1.63-2.78-.12-3.19 2.8-1.28 7.27-5.33 8.13-8.28.8-1.5 2.25-2.56 3.63-3.54.84-.09.39-1.44 1.28-1.65.99-.24 1.33-1.11 1.94-1.73a3.58 3.58 0 0 0 1.11-2.86c-.14-1.2 2.28-.52 1.29-1.92-.84-1.17.73-.96.93-1.7.12-2.23 4.08-.7 4.27-3.28-1.28-2.88 1.75-1.74 1.53-4.69.28-1.2 3.14.5 3.38-1.05.32-.64.28-1.54 1.16-1.76.32-.67-1.47-2.2.5-1.47 4-3.43 6.55-10.37 11.83-13.37 1.97-.62 1.27-3.25 2.38-4.56 1.79-.65 2.94-2.41 4.78-2.99 1.51-2.74 3.27-5.3 5.81-7.22 8.25-11.17 19.6-20.65 28.98-29.85-.4 2.2-3.22 2.32-3.47 4.46-.94.73-2.5.94-2.2 2.7-3.42 2.28-5.69 5.86-7.57 9.35-1.25 2.65-5.74 2.95-6.59 6.02-1.72 3.23-5.7 4.57-6.24 8.63-.13.69-.6 1.02-1.26 1.22-16.38 19.78-36.36 38.3-51.4 60.68-5.47 5.98-13.74 30.35-21.57 26.91-3.36-5.33-8.25-14.24-12.06-19.39-1.59-1.18-7.92-19.08-8.24-7.36-2.82.45-3.5-.57-5.59-2.25-5.32-2-7 4.54-9.84 7.68-11.47 14.67-18.08 32.08-29.5 45.97-3.24-5.99 2.7-4.46 2.2-6.19-.8-2.5-4.11-3.23-4.66-5.64-.17-3.79-2.72-1.79-3.53-6.18-1.47-.81-3.19-5.03-4.44-6.34-2.17-.21-2.45-2.23-3.84-3.94-1.5-2.16-2.1-5.1-4.1-6.78-.42-1.4.2-3.37-1.4-4.07-.11-2.03-2.4-2.88-3.14-4.65-1.01-1.47-.24-3.92-2.2-4.79-4.81-1.83-4.1-8.09-8.59-10.35-1.3-4.18-3.33-1.73-3-5.02.24-1.86-1.18-3.77-3.06-3.03 1.66-3.27-1.3-.17-1.25-1.76.42-1.53.6-2.83-1.15-3.1-1.65-.33-.48-3-2.72-2.63-.57.02-1.04-.05-1.03-.7.26-2.18-2.05-2.06-2.8-3.51-.36-2.08-2.73-2.57-3.88-4.05-1.21-2.05-1.35-5.78-3.8-6.43-.56-1.9-1.76-3.42-2.38-5.33-3.43-3.45-7.92-6.86-10.26-11.32-4.67-6.1-8.63-13.46-14.22-18.82a17.62 17.62 0 0 0-3.23-6.62c-1.36-.68-.82-2.55-2.5-2.87-1.11-2.5-2.88-4.52-4.67-6.7-1.65-1.12-3.64-2.52-4.34-4.32.42-2.3-1.74-2.57-2.74-3.8-2.37-2.73-4.38-7.44-8.08-9.7-1.7-3.81-5.86-5.82-7.61-9.69-.72-1.45-3.16-.6-3.23-2.82-2.2-4.22-6.18-7.22-8.25-11.58l-1.56.14c-.3-2.9-3.6-2.97-4.32-5.84-.32-.86-1.82-.64-2.25-1.3-.5-2.7-3-3.86-4.78-5.58-.84-.55-2.23-.52-2.23-1.92l-1.63.24c1.68-3.07-2.38-3.4-3.33-5.63-1.7-3.01-4.57-4.9-7.01-7-4.83-6.47-11.75-10.44-17.84-15.74-.9-.14-1.12-.8-1.37-1.56-.27-1.3-2.23-.34-2.5-1.58-3.1-5.81-10.47-8.13-13.66-13.97-8.5-8.56-18.15-15-25.92-23.25-6.19-5.2-14.87-7.5-20.18-14.22-9.25-9.86-21.47-15.42-32.58-22.38-18.4-10.8-38-20.72-57.97-26.15-.27.12-8.5-3.64-8.65-2.94-.3 1.16-.05 3.57 1.09 3.96 11.63 4.82 23.21 8.55 34.36 12.25.68.18.87 1.3 1.79 1.1.48-.1.9-.02 1.2.4 1.13.88 1.64 2.88 3.32 2.62 1.87 2.1 5.49 1.13 6.96 4.09.5.84 1.3 1.14 2.28 1.13 5.12-.84 7.24 5.13 12.14 5.19 1.09-.03 1.1 2.04 2.42 1.65 2.98-1 2.5 6.12 6.22 3.23-.36 3.68 1.31-.4 1.8 1.15.16 1.57.43 2.82 2.16 2.42 1.66-.31 1.44 2.6 3.41 1.48.52-.22.98-.3 1.18.31.42 2.29 2.8 1.15 3.83 2.56.56.95 1.4 1.56 2.61 1.43 1.06-.12 1.14 1.35 2.28 1.03.34 1.4 1.46 1.87 2.28 2.7.86 1.44 1.42 2.52 3.28 2.6 1.64 4.25 5.37 5.21 8.81 7.42 1.85 2.47 5.08 2.75 6.5 5.55.68 1.38 2.34 1.59 3.45 2.38 3.57.16 3.07 5.26 6.9 4.86.54 0 .7.5.8 1 1 .84 2.1 1.26 2.71 2.65 1.44-.05 1.4 1.84 2.89 1.77.24-.03.36.42.5.7.49 1.41 1.81 1.87 3.01 2.3 1.9 2.45 4.13 4.63 6.08 6.68 1.63-.13 1.26 1.84 2.28 2.43 2.75.78 3.14 4.45 6.07 4.59.25 2.56 1.9 3.44 4.27 3.82 2.73 2.91 5.41 6.88 9.4 8.67 1.34 3.75 5.94 4.77 7.3 8.53 1.01 1.43 3.65.69 4.55 2.46 2.43 3.1 4.7 6.96 8.42 8.48 2.4-.17 1.75 2.64 2.99 3.45 3.54.06 3.3 4.1 5.43 5.23 1.07.1 1.56.85 2.1 1.53.18 1.68-3.01-.44-2.77-1.71l-1.61-.77c-.66-3.22-4.9-2.47-6-5.39-1.07-.12-1.07-1.36-1.75-1.9-.64-.85-2.25-.65-2.55-1.6-.17-1.86-2.23-1.13-2.89-2.47-.42-1.87-2.34-1.54-3.27-2.72-1.17-4.15-5.63-4.22-7.63-7.44-1.96-2.6-4.5-4.24-6.8-6.55-.67-1.42-2.5-.96-3.08-2.28-.51-1.93-2.84-1.43-4.05-2.47-1.06-1.54-2.11-3.16-3.57-4.36-4.04-3.72-9.77-7.35-13.55-10.7-.86-2.67-1.57-1.56-3.01-2.91-1.52-3.5-5.21-5.27-8.04-7.27-2.55-1.28-2.67-5.73-5.66-6.62-3.16-1.68-4.46-5.61-8.45-6.05-.69-.1-1.02-.55-1.24-1.19-.4-1.36-2.24-.58-2.85-1.86-1.6-1.23-2.56-3.54-4.93-3.5-1.26.04-2-.54-2.49-1.64-1.47-.23-1.8-.77-2.55-2.17-1.97-1.1-4.53-.74-5.6-3.27-2.35-1.34-4.06-3.96-6.95-4.32-1.17-.16-1.88-1.15-3.01-1.62-.46-.51-1.54-.1-1.88-.99-.47-.96-1.77-.22-2.43-.93-2.11-5.06-8.77-3.92-12.47-6.83-2.51-3.14-2.3-2.02-5.58-3.05-.42-.4-.5-1.26-1.27-1.14-1.43-.23-2.24-1.82-3.7-2.04-.98.15-1.37-1.06-2.47-.73-1.45.06-1.83-1.92-3.5-1.54-2.4-1.04-3.6-4.04-6.72-3.9-2.03.55-3.28-1.3-5.37-.6-.26.09-.56-.21-.69-.5-.66-1.94-2.84-1.46-3.63-3.23-.26-.51-.73-.43-1.18-.44-1.49-.57-2.02-2.9-4.06-2.35-3.86.02-6.65-2.88-10.33-3.34-3.41-2.52-9.38-8.05-13.63-6.42-1.2-1.13-2.5-3.28-4.36-1.01-.45-1.38-1.4 0-1.86.63-.68-.36-1.06-.02-.94.7.97 5.52 5.3 10.95 7.1 16.93.88 1.2 1.62 6.88 4.16 5.85 1.63 1.9.26 3.52 1.72 5.8-2.8-.74-1.9-4.46-4.6-5.27-2.42-2.12-4.63-5.67-6.98-7.42l-6-7.04c-1.46-.65-2.1 3.45-1.37 3.97 7.48 9.26 14.8 17.6 23.05 25.63 1.36 3.16 1.22 7.76 4.62 9.92 1.16.45-.47 2.42 1.25 2.19 1.43-.23.6 1.22 1.18 1.73 1.98 1.2-1 4.32 1.29 5.71 3.08.11 1.1 2.65 3.81 3.73 1 .8-1.67 2.81-.33 3.74.94.53.9 1.7 1.63 2.18.78 0 1.9-.22.75.96 1.46 4.77 5.87 9.52 7.6 14.85.58 3.25 1.72 5.02 4.27 7.05.66 2.6.6 5.93 2.87 7.72 8.44 13.18 13.64 29.41 22.8 42.18 1.13 2.38 1.82 5.33 2.5 8.11.19.82 1.52 1.33 1.68 2.2-.13 1.64 1.38 1.96 1.96 3.1.79 5.84 7.12 9.65 9.38 15.06 3.7 7.65 10.4 16.26 15.05 25.01 2.77 5.8 6.3 11.36 8.82 17.42 2.47-.28 1.3 3.03 3.7 3.73 1.11 1.93 1.43 4.19 3.6 5.25.6 4.27 4.87 7.27 7.25 9.87-.09 1.02-.23 2.7 1.19 3.53 2.95 3.6 4.36 8.19 7.84 11.45 2.5 4.89 5.7 9.15 8.23 13.87.35 2.1 3.33 2.88 3.4 5.4 1.83 4.4 4.65 8.44 7.3 12.2-.02 2.06 2.43 2.42 3.36 3.84.45.8.2 1.97 1.13 2.51 1.66 5.46 7.4 10.91 10.7 15.26.45.97.35 2.27 1.65 2.68.42 1.16.16 2.75 1.95 3.03.27.04.38.48.43.8.75 4.53 4.9 7.25 7.16 10.63a14.68 14.68 0 0 0 3.54 8.86c1.56 2.65 1.97 5.9 5.03 7.56 1.23.52.2 2.32 1.32 2.84 2.66 1.53 1.84 5.75 4.85 7.05 1.2.5 1.67 1.35 1.72 2.6.02.62 1.28.43 1.33 1.2.03.66.05 1.33.25 1.92 1.43 1.87 3.97 2.68 3.98 5.5.48 1.95 2.5 2.55 2.56 4.78.36 1.62 2.5 2 3.1 3.37.44 1.45 2.2 2.15 2.66 3.6.24 1.33 2.29 1.3 2.07 2.91.17 5.78 8.3 7.44 9.23 12.93-.34 2.33 2.63 2.02 3.24 3.7.22.56-.06 1.4.7 1.65.82.28.4 1.56 1.48 1.66.27 2.27 3.01 3.04 4.04 4.78.16 2.05 2.9 1.86 2.87 4.03.6 4.71 6.34 5.57 8.7 8.6-.2 2.1 2.05 2.68 2.06 4.68.02.6.5.74.92.96 1.15 1.23.75 3.6 2.89 4.01 3.53 1.18 4.16 5.13 7.36 6.78 4.29 4.6 5.82 12.17 11.6 15.23-5.2 3.81-6.93 9.64-11.36 13.95-6.1 7.96-12.64 16.31-19.45 23.65-1.34 3.91-5.78 5.69-6.5 9.78-3.21 1.4-4.49 3.78-5.29 7.1-8.3 9.94-16.16 21.26-23.7 31.68-2.05 7.04-9.03 11.31-12.14 17.96-1 2.25-.89 5-3.62 6.03-.63.32-1.24.8-1.28 1.44-.14 2.43-1.76 4.08-2.9 5.97-3.77 1.53-3.85 8.5-6.4 7.28-2.36-.96-3.18 6.38-5.38 8-1.63 2.17-1.27 5.4-4.13 6.6l-1.07 2.43c-3.92 2.22-3.49 7.52-7.02 10.12-1.16 2.37-3.67 3.86-4.05 6.74-2.46 1-2.14 3.54-3.76 5.2a6.7 6.7 0 0 0-2.61 3.79c-1.13 2.8-4.65 4-5.48 7.23-6 10.34-15.02 19.66-19.27 31.15-7.68 8.2-12.5 20.58-18 30.03-2.08 1.36-2.25 3.48-3.34 5.49-4.12 3.82-5.9 9.4-8.25 14.24-3.5 4.9-7.69 9.34-10.16 15.08-8.58 17.03-20.88 31.6-30.56 48.2-.7.69-.55 2.09-1.66 2.7-1.43 1.13-.94 3.43-2.8 4.24-5.91 3.68-6.25 12.02-10.68 17.01-2.87 2.18-3.9 4.85-5.22 7.97a10.5 10.5 0 0 0-3.22 4.65c-2.53 1.8-2.72 5.36-4.46 7.72-2.24 1.48-1.45 4.58-3.83 5.93-5 3.73-4.75 10.82-7.54 15.66-9.05 8.48-11.1 21.28-17.52 31.52-2.64 4.27-11.94 17.38-5.4 17.72 2.02-.38 1.51.55 2.06 1.74 2.16-2.22 3.1-5.71 3.38-8.88.91-2.81 4.56-4.33 3.78-7.98 1.53-2.9 8.68-12.76 7.5-15.86-1.33-3.49 3.54-4.02 4.3-7.75 4.03-4.55 5.2-10.57 9.07-15.28-10.02 19.73-18.22 40.71-26.52 60.89 7.07 2.52 22.12-45.52 26.15-52.79 1.32-1.28 1.4-2.98 2.33-4.49 1.24-1.75 3.57-2.84 3.62-5.2 2.21-4.9 5.21-9.41 7.72-14.09 1.02-7.37 6.93-12.92 9.27-19.71 1.63-1.55 1.23-3.78 2.73-5.43 1.87-.72 2.76-2.17 3.54-3.86.46-.28.51-.69.26-1.17-1.7-2.15 2.89-.81.71-3.09 4-2.64 2.74-4.7 5.73-7.88-1.64 3.76-3.58 9.25-5.66 12.57-5.4 4.6-4.6 12.96-8.26 18.67-2.6 2.73-3.15 5.39-4.1 8.78-1.88 2.29-2.89 5.23-4.1 7.98-.55 3.24-2.63 5.99-3.26 9.17-4.47 5.84-5.41 12.85-7.01 19.69-6.38 7.67-7.75 17.3-11.3 26.5-4.92 3.72-12.83 7.09-12.96 13.97-3.6 1.08-.37 3.22 1.7 3.08l-.11.45c1.85.19 3.5-1.39 5.04-2.32-1.5 2.22-5.83 11.05-.54 10.46 2.04-.62 1.52.52 2.16 1.61 1.92-2.18 2.56-5.6 2.86-8.51a9.91 9.91 0 0 0 4.8-5.18c1.44-1.79 4.88-1.26 5.11-4.49.11-.52.65-.71 1.25-.73 3.43-1.7 6.85-6.43 10.58-8.3 5.02-1.12 7.93-5.76 13-6.81 2.37-1.68 6.17-2.04 7.53-5.24 2.03-1.86 1.74.88 2.57-2.62 4.4-3.07 4.52.17 7.5-2.82-.13-3.13 2.8-1.66 3.65-4.55.81-1.17 3.16 1.2 4.05-.35.62-.59.97-1.54 2-1.58.62-.57-.65-2.62 1.16-1.41 1 .08 2.54-1.24 3.45-1.84 5.09-6.52 14.48-7.72 18.82-14.44 11.68-4.67 20.37-15.34 31.42-22.34 7.2-4.66 14.3-9.85 20.16-15.89a27.4 27.4 0 0 0 10.92-7.56c1.63-1.45 4.2-1.86 5.28-4.09 3.9-3.26 7-8.81 11.74-10.91 9.28-10.43 21.79-21.42 33.04-30.93 1.31-2.3 5.31-3.52 4.92-6.13 2.45-.24 2.58-2.6 3.93-3.95 2-1 3.28-2.59 4-4.55 4.08-1.71 6.16-6.78 8.22-9.7 1.04-1.37 3.15-1.04 3.78-3.11 10.83-11.16 19.2-23.97 30.26-34.55 3.43-4.73 8.08-8.71 10.2-14.23 3.12-2.24 5.51-5.24 7.78-8.4 2.7-2.95 4.38-7.52 6.66-10.66.83-.85 2.16-1.3 2.17-2.77 1.03-.9 2.7-1.31 2.44-3.2 2.26-2.05 4.9-4.1 5.8-7.28a29.67 29.67 0 0 0 3.16-5.24c2.4-1.77 5.23-3.45 6.3-6.2 1.86-3.8 6-5.9 6.58-10.44.05-1.45 2.17-1.39 2.25-2.75 0-1 .48-1.62 1.12-2.29 1.34-1.97 3.8-3.37 3.91-6.03.06-2.3 2.17-2.8 2.49-4.93 1.06-.68 2.3-1.3 2.45-2.65-.12-3.9 4.18-4.98 4.8-8.47 3.13-2.17 3.1-6 5.15-8.88.57-.57.2-1.77 1.16-2.26 1.2-.93.32-2.89 1.95-3.55 3.84-.33 5.33-15.14 6.7-11.65.06.2.9-.03 1.2 0 .62.12.42.97 1.63.57-.43.88-.2.84.58.68.21.05-.37.79.2.56 1.15-.43-.96 2.14.41 1.55-.35 1.18 2.1 0 1.13 1.87-.46 1.23 1.87-.22 2.4.4-.25 1.17.27 2.2 1.47 1.74.62-.26-.58 1.18.34.74 1.7-.86-.12 1.1-.03 1.63-.02.15.54-.2.35.13-.14.46 1-.56 1.27-.69-.15.24-1.45 1.62-.44.85.5-.38 1.2-.95.8-.4-.77 1.03-1.3 1.83-.15 1.24.46-.23.49-.02.3.33-.72 1.2 1.62-.76 1.23.02-.94 1.53.94.15.8.93-.4 1.23 1-.12 1.12.77-.05.47.1.83.18 1.22.03.42-.9 1.67.45.95-.32.9-.04 1.31-.3 2.22-.28.83 1.39-.45 1.86 1.2-.16.94.41.4.96.74-.5.49-.2 1.49.02 1.42.54-.2.29.32.74.25 2.07-.62-.7 2.38 1.54 1.51-.35.38-.22.45.3.24-.42.58.3.1.37.32.08.2-.35 1.01.1.78.65-.2-.28.91.66.47.17-.07.02.17-.03.3-.4.9.38.64.76.68-.35.9.25 1.08.5 1.51.24.17-.8 1.34.02 1.1 1.14-.41-.15.75.25.9 1.41-.15-.03 1.87 1.45 1.28.7-.2-1.48 1.99.2 1.31 2.87-.8-.96 1.4 2.85 2.6-1.03 1.59 1.69 1.4.73 3.01.33.8 1.42-.94 2.13.7-.9 1.48.5 1.53.78 2.29.57.18 2.26-.57 1.06.75-1 .82 2.3-.24 1.09 1.4-1.08 1.08 1.1.07.88.9.14.19-1.92 1.01-1.67 1.1 1.36.02 1.36.87 2.24 1.07 1.05-.15.84.54-.07.54l.4.27-.02.01c.14.01.4.32.55.27-.64.72-.32.95.59.9-.22.45.93.27.3.92.05 0 3.16-.07 3.21-.05-.45-.45.5-.27.58-.49.27-.18-.68-1.04-.08-.88 1.2.1-.03-.53.46-.9 1.28.04-.13-.87.4-1.03 1.75.03.86-.69 1.72-.92-.8-.82-.48-1.14.17-1.29 1.88-1.03.45-.66 1.03-1.37.5-.03.41-.38.58-.6.79-.19-.57-1 .21-1 1.23.05-.42-1.14-.15-1.43.15-.18 1 0 .68-.41 1.25-.26 1.97-2.43 1.4-3.62-.26-.38-.08-.56.15-.7.26-.15 1.07 0 .44-.63.39-.12 1.48.14.44-.76-.16-.14.02-.16.17-.15 2.02.16.73-1.3 1.4-1.8.41.02.22-.3 0-.63-.1-.19-.28-.46 0-.38 1.28.38.73-.37 1.6-.22.82.14 1.07-.05.77-.57a.7.7 0 0 1 .46-.74c1.98-.1-.21-2.14.98-2 .93.24-.44-.8.32-.83.49-.44 1.67-.25.82-1.3-.5-.63-.29-.8.38-.67-.58-1.27.06-.28.76-.52-.17-1.06 1.28-1.12 1.1-2.32.5-.02 1.24.08.88-.71 1.72-.38.79-1.82 1.38-1.61 2.46-1.54 5.4-4.53 7.76-7.07.73-.07-.42-2.26.57-1.75 1.22.68.19-.6.67-.94.7-.9 1.22-2 2.1-2.72-.06 1.48 1.3.55 1.88 1.47-.2.5-1.02 1.5.13 1.3.66-.1 1.56-.34 1.27.52-1.15 2.4.41 3.1 1.52 4.66.62.97.45 2.5 2.13 2.7 1.96.25-.22 3.11 1.98 3.64 2.08 2.34 3.07 5.51 5.75 7.59-.11 1.54.75 2.65 1.25 3.93.38 1.98.57 3.3 2.45 4.43.41 2.7 1.34 5.72 2.9 7.82 4.3 4.26 7.21 10.02 9.85 15.21 1.6 2.1 4.2 3.37 4.74 6.06-.07 3.28 3.5 3.34 4.1 5.8 3.8 6.75 9.63 12.51 12.74 19.96 2.47 2.9 4.9 6 6.91 9.51.44 1.56 2.73 1.33 2.62 3.07-.09 3.4 3.74 3.3 5.16 5.49 4.8 8.54 12.58 15.77 18.48 23.21 5.32 2.48 6.97 9.04 11.75 12.42 3.82 1.32 3.12 2.34 4.97 4.99a7.3 7.3 0 0 1 4.96 4.47c-.2 2.33 5.66 2.44 3.75 4.84-1.88 1.14 5.94 5.17 7.1 6.56 2.48.42 2.38 3.29 4.6 4.05.82 3.67 5.47 3.6 6.8 6.92 1.74 1.17 2.34 3.5 4.72 4 .2 2.25 2.48 2.14 3.49 3.68.47 2.04 2.68 2.12 3.76 3.47a8.09 8.09 0 0 0 3.64 4.35c1.1 2.11 4.39 2.24 5.33 4.82 4.94 5.33 10.25 10.6 16.66 13.86 3.8 4.83 10.52 10.49 16.24 13.15 3.58 1.26 4.85 5.78 8.52 6.5 3.07 4.3 8.14 6.68 12.45 9.18a18.29 18.29 0 0 0 7.83 7.54c2.85 3.28 7.04 4.63 10.23 7.01 3.26 1.52 5.77 5.18 9.49 6.1 2.3.09 2.78 2.24 4.9 2.6 1.43 3.63 6.22 2.12 7.95 5.65 2.84 1.58 5 4.47 8.34 5.16 2.84 1.05 5.25 3.37 8.26 4.06 3.34 5.46 10.45 5.33 15.35 8.58 1.77.92 2.26 3.6 4.7 3.03 1.76-.44 2.1 1.78 3.5 2.02.96-.05 1.24 1.33 2.32 1.01 1.5 2.07 4.54 1.73 6.47 3 .67 1.03 1.69 1.17 2.76 1.32 2.14.27 2.8 3.11 4.81 3.65 3.14.86 6.32 1.88 9.58 2.01 4.58 3.78 9.46 7.42 15.29 8.84 4.34.66 7.59 4.03 11.72 5.15 3.85 3.17 14.1 12.65 16.1 7.43 4.43-1.32-.5-6.64 2.57-6.74-6.79-8.44-10.87-20.72-16.07-30.52-4.62-6.84-9.19-13.86-11.74-21.53.87 1.91 3.29 2.49 3.96 4.32.7 2.76 2.3 5.65 3.81 7.9 3.1 6.71 9.12 12.08 13.39 18.23 3.04 6.21 5.67 13.68 11.26 18.06 2.33 1.59 2.27-3.83 4.92-1.95-.46-4.26-5.53-5.93-6.75-9.69a6.24 6.24 0 0 0-3.62-4.99c-1.28-.81-.4-3.05-1.76-3.98-1.86-1.42-4.78-7.47-6.43-9.4-.85-1.43-3.46.28-3.71-1.81-1.6-7.12-6.98-12.12-10.57-18.08-2.67-3.94-4-9.55-8.44-12.24-1.39-.44-.28-2.99-2.08-2.69-1.49.36-1.1-1.65-1.87-2.13-1.29-.77-1.6-1.78-1.4-3.24.35-2.82-2.28-4.04-4.24-4.58-1.36-3.1-3.08-5.44-3.9-8.6-1.15-.63-1.53-2.09-2.46-2.71-.62-.68-1.38-.83-1.04-1.81-2.58-1.99-.62-7.6-4.98-7.55 1.84-4.28-1.4-.31-1.48-2.74.4-1.85.56-3.45-1.42-4.46-1.84-.97-.61-4.08-3.1-4.47-2.02-.64-.88-4.2-3.19-5.14-1.96-1.37-1.31-4.59-3.75-5.68-2.07-2.17-2.36-5.14-3.8-7.76-.5-2.24-.94-3.98-2.94-5.42-.67-3.25-1.81-6.76-3.66-9.41-4.18-4.9-7.68-10.82-10.34-16.6-1.05-4-5.71-5.86-6.5-9.9a7.59 7.59 0 0 0-3.9-5.59c-1.41-2.17-2.39-4.86-3.89-7.03a496 496 0 0 1-14.05-23.62c-2.4-3.49-4.12-8.1-7.45-10.76-.13-3.33-1.92-5.35-4.7-7.07-6.22-10.72-13.91-21.5-20.84-31.65-5.73-4.01-7.24-11.84-12.25-16.78-3.21-1.66-3.77-4-5.14-6.83-4.18-1.55-4.07-6.4-6.72-8.88-1.09-.62-3.68-2.92-2.12-3.84.6-.17.97-.58.62-.91-17.88-18.48-29.5-40.3-44.44-60.97-3.22-6.33-8.74-10.68-12.36-16.57-4.04-8.44-12.65-16.41-17.8-23.85-.27-2.27-2.23-3.4-3.52-5.05-1.75-5.14-5.83-8.83-9.12-12.82-4.02-7.3-7.78-15.15-13.47-21.7 6.14-6.23 9.04-14.32 14.6-20.73 1.54-1.05 2.5-2.62 4.05-3.73.78-1.46.93-3.61 2.76-4.31.96-.33.84-1.63 2.04-1.8.92-1.31 2.36-2.39 3.48-3.72 1.63-1.05.48-3.88 2.7-4.22.7-.27-.71-1.57-.1-1.9 1.64-.63.98-2.68 3.22-2.45 2.66-.16 2.33-2.57 2.12-4.13 2.54-.23.94-3.87 3.25-3.58 1.17.3 1.86-.05 2.24-.8.34-.7.32-1.66 1.23-1.95.35-.7-1.5-2.21.54-1.59 2.15-.83 2.67-4.14 4.2-5.9 3.14-5.27 9.1-8.33 10.47-14.24 3.46-2.22 6.26-5.13 7.79-8.96 8.83-12.43 20.2-23.89 28.2-36.55 3.35-2.16 6.45-5.35 8.13-8.83a26.16 26.16 0 0 0 7-10.39l3.55-5.01c.82-1.25 3.23-.99 2.4-3.13-.34-2.11 2.62-2.38 3.12-4.4 8-13.28 20.3-24.31 26.72-36.68a6.6 6.6 0 0 0 2.96-4.6c1.77-.6 2.31-2.15 3.13-3.48 1.69-1.55 1.21-4.6 3.16-5.68l-.54-1.6c1.7.38 3-.52 3.41-2.17 1.64-4.06 6.15-6.43 6.92-11.03 7-6.77 9.47-16.98 15.31-24.45 7.29-12.61 18.4-24.66 25.75-37.95-.11-2.11 2.59-2.17 3.48-3.66a9.48 9.48 0 0 1 1.65-3.9c1.87-1.1 1.81-3.16 3.57-4.21 1.88-2.6 2.88-5.42 5.09-7.8 3.43-13.58 16.72-21.24 21.69-34.05 2.84-3.1 3.8-8.17 7.53-10.16 3.29-3.63 3.39-9.35 7.68-11.9 2.37-.4 1.1-3.06 2.55-4.17.47-.38 1.36-.35 1.37-1.15.02-.87 1.36-.86 1.14-1.9 2.12-.92 2.03-3.73 3.41-5.22 1.9-.71.96-3.32 3.03-3.9 3.65-1.91 4.17-6.48 5.26-10.03 1.74-.93 2.83-2.84 4.6-3.83 1.01-.48.39-1.8 1.65-2.08 3-1.04 1.69-4.9 3.81-6.68 1.89-1.65 2.51-4.32 3.73-6.27 3.54-3.45 8.44-7.04 9.33-12.15h.05Zm-21.77 11.82c-.21 3.3-1.83 3.49-2.65 5.9-.43 4.1-3.66 7.03-4.45 10.72-1.18.81-1.1 2.07-1.87 3.1a11.03 11.03 0 0 0-4.56 6.21c-.69 3.8-5.55 5.16-4.75 9.48-.8 3.93-5.64 6.02-5.78 10.18-.76-.5-2.15 1.87-2.57 2.5-.3 2.44-2.35 3.37-3.2 5.28-2.13 4.52-7.4 7.06-8.16 12.26-4.6 2.39-5.94 6.77-9.01 10.54-6.56 8.95-13.32 18.66-21.34 26.5 3.02-2.42 3.8-6.1 5.88-8.85 1.35-.46.55-2.32 1.82-3 3.3-2.08 2.67-5.8 5.19-7.75-.04-2.04 2.45-1.97 2.83-3.84.6-4.95 6.7-6.7 7.6-11.56.21-1.18 1.3-1.92 1.83-3.03.54-.45.2-1.57 1.12-1.9.9-.32.44-1.44.9-2.05 2.81-1.52 4.24-4 5.73-6.92-.58-4.8 5.1-5.93 5.64-9.59-.34-1.7 1.76-1.62 2.03-2.86-.03-.88 1.3-.9 1.05-1.92 1.43-.88 2.04-2.54 2.54-4.13.13-1.46 2.2-1.68 2.04-3.42 1.36-2.34 4.58-3.23 4.91-6.42-.24-2.14 1.79-3.2 1.43-5.42-.05-.27.31-.54.61-.64 2.05-.44 1.92-2.71 3.82-3.3.56-.19.54-.69.64-1.14.8-1.44 3.24-1.7 3.03-3.84 1.88-5.4 5.08-10.51 9.54-14.07-.28 1.22-1.43 1.85-1.85 2.96l.01.02ZM898.8 445.7c-1.29 2.02-3.46 2.96-3.76 5.48-2.4.57-6.5 8.02-6.27 9.77-1.03.52-3.04.34-3.36 2.31-1.82 3.86-6.4 5.86-7.4 10.33-3.48 3.28-7.06 7.18-8.57 11.68-10.19 16.49-24.3 30.01-35.6 46.3 0 2.1-2.69 1.92-3.65 3.31a9.01 9.01 0 0 1-1.88 3.68c-1.91.94-1.99 2.97-3.79 3.85-2.01 2.39-3.17 5.07-5.5 7.24-3.51 9.97-11.97 16.58-18.83 24.24-19.95 28.88-39.8 58.52-56.11 89.38 5.26 7.34 18.9-29.56 22.42-32 .32-.48.17-1.27.41-1.82.3-.68 1.45-.76 1.4-1.73-.02-.5.12-.92.6-1.19 1.07-1.07 3.18-1.4 3.12-3.2 2.35-1.77 1.85-5.62 5.01-6.92 2.38-1.51 1.2-5.16 2.9-7.12 3.37-1.9 4.2-5.87 6.11-8.4 1.9-.87.16-3.7 2.88-3.8 1.84-.43 3.27-2.42 1.96-4.02.46-.03 2.32.45 1.48-.57-.4-.52-1.03-1.2-.17-1.26 1.6-.12 2.9-.38 2.63-2.19-.19-1.72 2.76-1.43 1.77-3.5-.58-1.72 2.77-1.57 2.37-3.64.1-1.87 2.88-2.02 2.5-4.22.66-2.1 2.8-2.99 4.1-4.7 1.51-.9 2.62-1.51 2.79-3.45 2.14-1.17 4.4-2.84 5.53-4.82 1.79-5.02 5.9-9.1 9.4-12.73 1.22-1.96 1.37-4.65 3.55-5.72 2.9-.64 1.71-3.98 3.66-5 .76-.22.43-1.15.88-1.55 1.5-1.29 2.97-2.66 3.6-4.54-.03-.25.42-.41.7-.56 3.1-2.58 4.49-7.07 8.32-9.02 1.3-2.34.7-2.05 3.08-3.74.55-2.8 4.1-3.52 4.32-6.32.55-1.45 3.67-.98 3.36-3.41-.18-2.71 2.26-3.34 3.63-5.08 3.4-4.58 6.6-8.67 10-13.16-8.13 13.34-16.54 25.76-26.62 38.22-3.52 4.16-4.94 9.79-9.4 12.64-.75 3.55-3.99 6.08-6.21 8.7-5.84 10.23-11.37 21-20.77 29.09-5.68 7.26-9.8 15.86-15.3 23-9.2 14.85-20.48 28.73-28.87 44.1-2.55.59-2.27 3.25-3.36 5.03a38.84 38.84 0 0 0-5.55 7.44c-5.38 2.68-5.68 8.97-9.2.45-23.24-33.27-45.24-69.77-67.33-105.22 4.37-5.01 5.46-13.32 9.19-19 2.07-2.41 5.64-4.17 6.57-7.46.88-1.54 2.4-2.64 3.87-3.66.86-.1.46-1.48 1.37-1.71 1.01-.27 1.37-1.18 2-1.83 1.6-1 .41-3.77 2.6-4.07.69-.25-.73-1.55-.12-1.87 1.59-.56.92-2.6 3.11-2.32 1.42 0 1.95-1 2.37-2.01.25-.4-.84-1.77-.35-1.99 2.58-.25.81-3.73 3.14-3.43 1.17.33 1.84 0 2.2-.74.33-.68.29-1.6 1.18-1.87.17-1.48-1.76-1.84 1.04-1.53 2.72-4.42 5.57-8.8 9.14-12.8 2.63-1.83 3.64-3.58 4.33-6.64 1.81-.84 2.88-2.72 4.75-3.49 1.32-2.26 2.32-4.88 4.28-6.76 2.05-2.18 3.25-5.02 5.66-6.97 2-3.8 5.51-7.32 8.87-9.82 1.43-.5 1.85-2.18 2.73-3.18.56-3.53 5.5-2.59 5.44-6.47.4-.94 1.7-.56 2.04-2.08.58-.57 1.86-.68 2.02-1.55.2-1.12 1.94-.88 1.87-2.28 1.43-.8 2.76-1.6 3.2-3.33 2.65-1.02 3.5-4.06 6.3-4.66 1.12-.54.57-2.45 2.18-2.48 1.86-.92 2.53-3.45 4.7-4.27.6-.4 1.1-.96 1.13-1.86 2.44-1.72 3.33-.4 4.12-4.53 2.97-2.66 7.04-5.22 8.92-9.16 3.8-1.22 4.86-5.86 8.65-7.16 1.65-2.09.7-3.38 3.74-5.69 5.2-1.28 5.94-7.9 9.73-9.44 1.7-.63 1.6-3.5 3.42-4.37.82-.79 2.79-.14 2.83-1.77 1.6-3.68 1.85-1.57 3.38-1.09 2.2-2.87 3.91-7.23 7.13-8.5.84-2.1 3.68-1.77 4.02-4.34 1.86-2.44 5.28-3 6.54-5.98 2 .25 1.9-1.93 3.29-2.54 1.08-.24 1.93-.8 2.31-1.87 1.05-1.7 4-1.14 4.88-3.31.2-.32 1.03.01 1.17-.5.9-2.96 4.04-3.46 6.3-5 1.6-2.1 4.55-3.08 6.22-5.19.32-1.57 2.4-.9 2.95-2.35.45-.78.65-1.79 1.38-2.3 3.54-1.1 8.05-5.18 10.97-7.55 1.92-1.07 2.5-3.68 4.57-4.6.87-.46 2.1-.39 2.38-1.67 1.04-.43 2.56-.2 2.7-1.94 3.24-.69 5.37-3.18 7.84-5.09 1.3-.05 1.4-2.15 2.48-2.3 2.42-.56 5.28-.77 6.81-2.69 2.49-2.5 6.56-2.32 8.23-5.9.33-.6.86-.75 1.51-.72 1.43.1 1.28-1.83 2.7-1.93 1.72-.99 4.13-.98 5.02-3.1.45-1.15 1.27-1.57 2.45-1.56.59 0 .4-1.25 1.12-1.25 1.05-.04 2.28.14 2.85-.9.97-2.5 3.47-2.34 5.53-3.06.77-1.18 1.99-1.57 3.37-1.7 1.55-.15 2-2.23 3.33-2.65 1.4-.24 2.2-1.88 3.6-2.14.9.15 1-1.05 1.63-1.37.88-.73 2.25.3 3.12-.18 4.28-1.7 6.54-6.63 11.33-6.82 2.15.82 2.25-2.15 3.92-2.4.55-.1 1.29.35 1.64-.34.38-.75 1.5-.08 1.77-1.06 2.17.31 3.39-2.13 5.2-2.67 1.91.35 2.27-2.31 4.27-1.74 4.81.24 6.76-4.69 11.51-5.58 1.29-.94 3.22-.12 4.31-1.1 1.43-.7 3.42.58 4.44-1.29 2.24-3.04 6.26-1.82 8.78-4.58 3.84-.4 7.78-1.05 11.66-1.91-.94 1.39-1.92 2.76-1.97 4.67-.84 1.93-4.18 2.08-3.47 5.1-2.3 1.85-4.78 6.12-6.76 8.92-.74.91 1.83 2.68.3 3.27a13.19 13.19 0 0 0-5.39 5.72c-2.73 1.15-1.54 4.59-3.96 5.94-.91.4-.65 1.64-1.81 1.92-.79 1.39-2.04 2.46-3.01 3.89-1.48 1.14-.05 3.81-2.2 4.32-.65.32.88 1.48.3 1.85-1.55.75-.66 2.69-2.89 2.63-2.61.36-1.99 2.73-1.64 4.2-2.48.4-.56 3.84-2.85 3.7-1.2-.21-1.84.18-2.13.94-.27.7-.16 1.63-1.02 1.98.1 1.44 1.6 1.76-.91 1.62-2.35 4.68-4.89 9.28-8.15 13.57-2.43 1.98-3.43 3.92-3.86 6.99-1.89 1.76-4.8 3.28-5.19 6.06-7.13 13.39-18.75 25.14-25.7 38.65-1.9 2.86-5.89 4.55-7.14 8.07-1.45.48-1.13 2.1-1.83 3.03-3.46 2.03-4.38 6.2-5.91 9.56l-3.2 5c-.76 1.26-3.13 1.04-2.2 3.13-6 10.92-16.22 22.42-23.23 32.65h.01ZM753.1 687c9.12 14.4 18.7 28.75 27.2 43.95 4.54 4.6 1.57 6.21 7.29 9.77 4.57 8.45 10.34 16.37 15.71 24.48 2.36 2 2.1 5.95 4.74 7.4 2.63 1.02 3.24 3.74 4.94 5.62 3.63 9.2 11.12 15.21 16.24 23.02-.07 3.85 6.34 6.65 4.15 8.3-1.9 2.26 9.76 9.88 9.54 13.68l1.79 1.83c.46 4.33 5.45 5.78 6.37 9.93 1.69 1.9 1.99 4.67 4.45 6.07-.15 2.5 2.37 3.25 3.18 5.26 5.68 10.38 12.36 20 18.57 30.44 7.76 9.34 13.16 21.82 21.82 30.99 3.37 3.63 4.38 8.53 7.91 11.86 1.58 6 7.06 10 9.87 14.9-4.6-3.16-6-8.63-9.94-12.4-4.14-7.18-9.67-13.9-13.45-21.16-3.23-2.34-3.51-6.97-7.09-8.78-.55-2.01-.57-4.4-2.86-5.4-5.42-3.84-6.72-11.86-12.36-15.99-4.53-8.25-10.31-15.4-16.36-22.32-3.92-9.11-11.5-15-16.82-22.71-.45-3.43-3.1-4.52-4.8-7.2-.84-1.1 1.83-1.05 1.09-1.94-7.63-7.4-13.01-15.83-18.75-24.36-5.26-8.03-10.8-15.62-15.13-24.3-7.56-8.15-10.7-19.85-19.15-27.34-3.22-8.6-10.74-17.16-16.23-24.39-1.56-2.65-2.3-6-4.94-7.82-.31-.1-.51-.67-.61-1.07-1.64-5.83-6.46-10.07-9.7-14.73-2.29-9.27-8.93-16.81-13.95-24.53-2.87-3.38-3.98-8.45-7.47-11.52-2.28-1.4-2-3.82-4.02-5.42-.22-4.46-5.5-5.77-5.87-10.32-.77-2.53-3.16-3.85-3.51-6.64-3.27-4.14-6.04-8.54-9.31-12.6-1.17-1.6-.27-3.8-1.8-5.25 13.68 16.96 23.3 35 36.96 51.79 2.83 2.48-1.1 6.16 2.72 7.4 2.33.08.72 3.3 2.72 1.54 1.2 4.01 5.57 6.07 6.87 9.96h-.01Zm226.54 342.07c-.27-.2-.4-.45-.45-.78.18.23.32.5.45.78Zm-302.5-459.16c-1.12-4-3.67-7.52-5.07-11.31 3 4.9 7.24 9.01 8.55 14.77-1.02-1.28-1.85-2.76-3.48-3.46Zm-7.66-4.9c-.96-.28-.8-1.49-.93-2.3.36.73.53 1.58.93 2.3Zm17.9 25c.66 2.25 2.9 2.93 2.15 5.63-.28-2.38-2.37-3.88-3.06-6.08.44-.03.77.1.92.45Zm6.37 9.56c-.26 2.93 4.05 3.05 3.41 5.61-1.25 2.42 1.5 3.3 2.36 5.04-3.64-2.6-5.57-6.92-6.64-11.04.44.01.83.08.87.4Zm6.39 11.3c1.24-.15 1.8.01 1.02 1.52l-1.04-1.52h.02Zm2.19 3.24-.74-1.09c.31.32.54.7.74 1.1Zm2.79-4.28a19.96 19.96 0 0 1 0 0Zm-16.08-81.05.24-.42c.02.17-.07.3-.24.42Zm9.6-13.64c.14-.31.29-.62.45-.91.01.34-.18.7-.45.9Zm103.37-121c5.8-5.07 11.75-9.87 18.25-14.03-.78-2.3 2.5-1.59 2.78-3.95 1.06-1.33 3.6-1.19 3.85-3.27.1-1.08 1.39-.6 1.95-1.14-2.19 1.49-2.76 4.67-4.93 5.68l.25 1.61c-1.45-.75-2.91-.29-3.6 1.2-.73 2.13-3.3 2.27-4.43 3.98-3.03 4.05-7.72 6.48-10.3 11-2.71.44-2.36 3.44-4.12 4.91-3 3.2-6.29 6.4-8.54 9.6-5.63 4.64-10.84 11.22-16.77 15.98.9-2.52 3.83-7.12 6.37-8.21 4.52-7.39 12.24-16.2 19.24-23.37v.01Zm32.88-30.2c.57.2 1.13.44 1.7.58-.93 1.75-2.26 2.8-4.06 3.72 1-.83.84-2.73 2.5-2.68l-.14-1.62Zm3.5-.69c.23.7-.28.55-.76.69.3-.2.57-.4.76-.69Zm-7.47 6.6c.41-.4.84-.8 1.24-1.22-.35 1.32-.85 1.9-2.17 2.18.3-.32.6-.65.92-.96Zm8.38-7.95c.3-.27.65-.49 1-.67-.3.26-.63.5-1 .67Zm7.84-6.08c.21-.75.63-1 1.37-1.25-.43.44-.83.92-1.37 1.25Zm2.38-1.81c5.9-3.75 9.48-9.45 15.43-13.43 1.16-.73 1.2-2.56 2.87-2.43 1.39-.5 1.07-2.54 3.07-2.32-.04 2.85-7.29 5.8-9.62 8.8-3.51 2.62-7.8 7.68-11.75 9.37Zm22.64-18.96c2.28-1.6 4.52-3.23 6.71-4.94-1.3 1.22-4.8 4.8-6.7 4.94Zm131.42-74.72c-.25 0-.52-.05-.79-.07l1.07-.28-.28.35Zm-2.25.36c-.13 0-.24.02-.37.04l.43-.11-.06.07Zm-54.44 124.06c1.24-.55.59-2.6 1.57-3.2 1.86-.36 2-2.25 3.62-2.75-.47 3.25-3.75 4.03-5.68 6.4.13-.16.28-.32.5-.44h-.01Zm83.99-126.85c-.48.66-.9 1.35-1.28 2.06-1.72-1.45-5.25-.65-1.95-3.58-.07-3.55 2.39-2.2 5.71-2.88-.81 1.47-1.48 3.05-2.48 4.4Zm-32.24 3.42 1.66-.42c-.62.18-1.7.75-2.55.67l.89-.25Zm-2.8.78.45-.13c-.26.5-.8.32-1.29.35l.84-.22ZM834.22 360c4.17-5.45 10.66-8.99 14.05-14.92 3.74-4.12 8.36-7.85 11.57-11.7 8.34-5.47 15.58-12.6 24.46-17.55 1.1-.97 7.98-5.5 8.6-6.56.62-1.98 3.1-.93 4.44-1.9 1.07-2.29 3.54-2.76 5.37-3.82 1.84-1.76 4.8-1.62 6.13-4.32 3.63-.12 5.12-3.57 7.71-5.25 6.65-5.25 14.88-6.95 22.61-9.9a243.24 243.24 0 0 1 54.34-21.34c-3.04 2.76-7.09 2.7-10.74 4.2-1 .3-1.79.93-2.3 2.08-.42 1.14-2.29-.54-2.02 1.16-.92 3.09-6.95-.5-7.13 3.28 0 .48-.02.93-.28.89-2.24-.95-2.32 3-4.14 1.68-1.94-1.9-2.37.83-4.03.85-.4.21-.03 1.22-.17 1.49-.23-.13-.76-.63-.87-.33-5.18 1.52-9.85 7.1-16 8.25-2.01-.19-1.93 2.4-3.48 2.88-3.16.2-5.48 2.75-9 2.8-2.62 1.39-4.64 4.47-8.04 4.97-1.48 1.25-2.55 2.77-4.78 2.75-2.9.33-3.75 4.3-6.72 4.4-2.85-.52-2.85 2.96-4.94 3.15-.76-.1-.77.88-1.3 1.07-.73.4-1.98.19-2.36 1-.47 1.04-2.1.37-2.38 1.75-1.53.4-3.1.94-3.89 2.5-2.81.4-4.32 3.17-7.19 3.15-1.23.29-1.1 2.26-2.7 1.94-2.03.56-3.16 2.87-5.48 3.28-.9.24-1.3 1.18-1.67 2-2.57-.33-3.83 1-4.74 3.27-3.01 2.12-7.54 3.47-9.77 7.01-3.86 1.3-6.22 5.22-10.22 6.45-1.57.78-1.23 3.51-3.12 4.14a36 36 0 0 0-8.78 6.24c-.92 1.33-.97 3.53-3.25 3.23-1.83.51-1.85 3.33-3.77 4.1-.87.73-2.79-.05-2.95 1.58-.58 2.62-4.1 2.42-1.07.08V360Zm-7.8 7.34-.3-1.63 1.28.27c-.81 1.09-.94 2.79-2.53 2.94.26-.75.5-1.51 1.55-1.58ZM718.4 489.35l-.13.64c-.18-.33-.23-.6.13-.64Zm-.79 1.63c-.25.2-.4.3-.48-.08l.48.09Zm-8.24 10.23c1.43-.72.84-3.12 2.38-3.5a10.03 10.03 0 0 1-4.36 5.74c.7-.72 1.29-1.52 1.98-2.24Zm-4.15 3.8.38-.2c-.23 1.13-.15 2.67-1.6 2.96-.27-1.34.95-1.77 1.22-2.76Zm-15.08 20.87-.23.36c-.03-.19.07-.28.23-.36Zm-15.31 24.64c.02-.43.4-.65.86-.73a99.07 99.07 0 0 0-1.74 4.57c-1.32-1.38 1.12-1.88.88-3.84Zm-8.04.73c-1.3-.18-1.87-3.28-3-4.4 1.2 1.33 2.68 2.49 3 4.4Zm-6.1-9.6c1.13 1.06 1.38 2.5 2.03 3.73-1.57-1.5-2.67-2.9-3.18-5 .36.46.74.89 1.16 1.28Zm-12-20.47c.59 1.05 1.22 2.07 1.82 3.1-1.18-.8-2.2-1.64-3.09.23-1.03-1 .75-2.53 1.28-3.33Zm-48.79 66.5c.92 1.24-1.05 1.72-1.2 2.64-.43 3.09-4.96 2.68-5.3 6.1 1.21 3.01-2.36 3.69-2.15 6.86-.04.64-.72 1.09-1.47 1.08-3.01-.16-2.34 3.13-4.13 4.49-.47.88 1.55 2.33-.72 2.13-5.3 6.66-8.58 16.24-15.23 22.44-2.38 1.6-1.82 4.76-3.26 6.96-2.25 1.64-3.64 4.3-5.99 5.86-4.42 8.43-10.2 16.14-15.73 24.16-8.42 11.82-18.82 22.98-26.15 35.2a47.26 47.26 0 0 0-11.65 13.66c-6.44 4.95-8.95 14.1-14.46 20.08-8.15 9.83-16.15 21.93-24.83 32.77 18.49-28.4 39-56.72 59.31-83.5 9.13-15.77 19.26-30.98 31.88-44.56 12.65-19.69 25.93-38.54 40.92-56.72.04.12.1.24.17.35ZM377.26 466.21c.9-1.19.27-2.67-.8-3.54-2.97-3.16-3.2-8.2-7.04-10.8-1.9-4.72-4.43-9.55-8.31-12.83-5.34-8.87-9.93-17.9-15.85-26.41-3.5-9.41-9.46-18.65-14.02-27.22-.02-3.43-2.93-4-3.78-8.31-1.65-2.1-1.3-5.1-3.97-6.7.07-3.73-3.35-5.55-5-8.3-5.06-7.16-6.7-15.67-9.97-23.65-2.7-5.38-6.1-10.26-8.48-15.79.47-.03.94-.1 1.4-.12-.16.4-1.27 2-.03 1.58.62-.17 1.5-.5 1.23.32-.5 1.54-.75 2.84 1.03 3.27 1.66.48.28 3.11 2.57 2.97.58.04 1.04.18.98.83-.5 2.35 2.17 2.35 2.58 4.14.14 1.15.69 2.11 1.88 2.54 1.04.37.54 1.79 1.73 2-.23 1.47.62 2.42 1.07 3.57.26 1.76.37 3 2.1 3.92-.01 6.08 5.43 9.12 7.2 14.6 2.5 1.2 1.77 4.26 3.1 6.03 1.32 1.88 3.76 3.08 3.86 5.52-.57 2.94 2.94 3.16 3.11 5.37 1.03 1.22 1.2 2.73 2.04 3.95 1.05.58.35 2.21 1.74 2.6.35 1.64.81 3.33 2.36 4.31 1 3.1 2.4 6.1 3.6 8.87 1.6.53.6 2.28 1.4 3.25 2.35 1.64 1.56 5.17 4.02 6.52.83 6.15 1.13 2.6 4.07 6.7.5 4.1 3.27 7.78 5.74 10.83 1.16 4.27 3.86 8.76 5.9 12.31 4.76 3.02 3.83 10.56 8.56 13.82 2.41.6 1 3.19 2.05 4.4 1.95 1 3.17 2.9 3.19 4.9-.81 2.08 4.43 3.3 1.95 4.99-1.9.66 3.47 5.37 4.39 7.23 2.16.94 1.05 3.34 2.87 4.54-.35 3.02 2.85 4.11 3.78 6.68l-1.45-.16c.1-3-3.23-3.88-3.49-6.94-2.5-1.84-1.78-3.16-3.48-5.35a31.23 31.23 0 0 0-5.82-6.44h-.01Zm-96.48-207.83c1.78 2.77 5.17 3.66 7.5 5.83 1.5.42 3.56.05 4.47 1.72 2.82 1.59 5.19 5.21 8.99 4.86 1.16-.33.92 2.16 2.15.95 1-1.03 1.12.57 1.87.64 3 .22.96 5.42 5.89 3.1.48 2.45 3.76.33 3.69 2.62-.19 1.2.2 1.8.97 2.06.68.23 1.59.07 1.95.9.71.23 1.96-1.77 1.54.29-.36.3 2.25 1.88 2.63 1.98 5.94 1.15 9.9 6.89 14.79 9.28 1.76-.04 3.05.38 3.67 2.06 5.48 5.4 12.8 8.1 19.04 13.29 7.96 5.8 14.95 13.43 23.15 18.2a20.23 20.23 0 0 0 4.79 5.72c1.77 1.1 1.56 1.96 3.82 2.75 2.8 5.72 11.25 5.93 13.96 11.83.23 1.63 2.2.56 3.32 1 .65 3 6.23 5.83 8.13 8.03 9.69 7.22 16.46 18.28 25.49 23.94a5.94 5.94 0 0 0 3.87 3.35c.27 1.78 1.64 2.47 2.77 3.4 1.19 1.82 4.18 1.7 4.82 3.72l1.62-.33c-.65 1.54-.12 2.93 1.43 3.56 3.54 2.08 4.88 6.77 9.1 8.13 5.53 7.47 14.8 12.97 21.37 19.27 9.57 10.66 21.06 22.26 29.72 33.5 1.34 1.12 1.14 3.14 2.12 4.25 1.38.73.81 2.4 1.7 3.49 1.84 1.87 2.79 3.88 3.98 6.18.94 1.53 3.01 2.08 3.79 3.71 5.46 6.22 8.02 14.11 12.66 20.86 4.04 4.76 8.7 8.52 12.55 13.38 16.41 17.8 30.32 40.15 38.62 62.42.8 1.64.81 5.28 1.96 6.58 6.02-2.8-.47-11.2-.95-15.98 2.49 4.62 5.16 10.84 6.92 15.82-2.93 2.8-3.29 7.52-7.1 9.74-3.02 2.35-2.56 6.95-4.84 9.75-5.98 4.51-7.44 12.9-12.4 17.3a6.56 6.56 0 0 0-3.8 4.06c.34 1.16.51 1.66-.95 1.51-1.9 0 1.03 2.19-.71 2.46-1.9.4-3.47.92-3.68 3.2-.24 2.16-3.6 2.27-3.05 4.8.05 2.27-3.63 2.48-3.71 5.1-.62 2.44-3.86 3.08-4.03 5.86-1.95 4.71-8.1 6.31-9.74 11.15-2.27 1.6-4.18 3.95-6.48 5.65-4.62 6.94-9.3 14.38-15.53 20.07-6.17-8.86-12.63-16.67-20.4-23.74-.07-1.55-.84-2.26-2.14-2.9-.55-.53-.23-1.65-1.16-1.96-2.05-.85-.64-4.4-2.91-5.12-.9-2.89-4.7-3.77-4.86-7.27-.32-2.3-3.16-2.75-4.66-3.95-1.88-3.79-4.57-7.2-7.18-10.09-.24-2.12-3.49-1.42-2.71-4.05.19-1.9-1.22-3.97-3.2-3.28.14-.43 1.17-2.07-.06-1.6-.62.2-1.47.57-1.25-.28.4-1.58.57-2.9-1.23-3.27-1.7-.4-.48-3.15-2.77-2.9-.58-.02-1.06-.13-1.05-.8.34-2.39-2.35-2.26-2.89-4.05-.23-1.15-.85-2.1-2.08-2.46-1.36-.8-1.38-2.4-2.15-3.5-1.51-2.03-.98-4.75-3.5-5.83-.45-2.44-1.35-5.18-2.89-6.93-5.25-3.88-6.99-10.75-11.23-15.2-3.49-1.46-1.7-6.31-5.64-7.24-.53-.18-.56-.73-.55-1.25-.76-1.18-1.77-2-2.03-3.59-1.45-.44-.91-2.31-2.43-2.74-.23-2.2-2.5-3.25-2.68-5.26-2.74-3.12-3.55-7.12-6.2-10.4-1.42-2.81-3.77-5.04-5.47-7.7.24-1.62-1.04-2.46-1.34-3.58-5.86-7.82-12.15-19.6-16.48-29.63-2.15-2.9-3.13-10.4-6.27-11.14.62-2.2-1.53-2.84-2.25-4.36-.2-2-1.2-3.5-2.7-4.6-.47-3.92-3.96-8.48-6.87-9.73 1.1-1.3.96-2.86-.32-3.96-2.8-3.23-2.77-8.23-6.46-10.95-3.33-9.38-10.65-17.37-15.37-25.73-6.57-13.06-13.62-27.86-20.99-40.54.04-3.13-3.02-4-3.93-8.11-1.4-.85-.8-2.55-1.65-3.74-2.56-2.4-2.78-6.13-5.52-8.36-7-6.79-9.08-16.71-13.43-25.14-3.43-5.52-7.32-10.55-10.65-16.13-8.73-12.8-19.18-25.92-25.64-40.48-4.08-9.86-11.68-18-13.44-28.29 3.4-.15 2.14.44 4.45 1.93 2.44.22 4.68 2.47 7.06 3.34 1.2.4 1.98-1.79 3.3-.45h-.02Zm246.84 421.1.05-.07-.05.07Zm64.54-123.82-.01.24a2.81 2.81 0 0 1-.75-1.64c.44.4.94.71.76 1.4Zm-53.13-74.56-.1-.18c2.04.27.71 2.86 2.4 3.59 2.62.8 2.62 3.26 3.55 5.29a3.66 3.66 0 0 1 1.9 2.87c-3.1-1.13-4.2-4.4-5.19-7.41-.2-.64-.57-1.15-1.55-1.22-.57-.75-.27-2.2-1-2.93Zm12.4 17.1c-.52.03-.63-.5-.66-.97.32.25.34.71.67.96Zm-1.7-2.6c-.74-.4-1.81-.4-2.03-1.4.5.62 1.45.87 2.02 1.4Zm-10.85-14.78a5.05 5.05 0 0 1-.74-1.87c.5.44.62 1.13.74 1.88Zm-5.3-7.37c-.15-.25-.3-.5-.43-.76.17.22.3.47.43.76Zm-2.32-3.54a4.38 4.38 0 0 1-.42-.38c.18.11.32.24.42.38Zm10.17 189.4a77.04 77.04 0 0 1-11.14 16.26c2.47-6.09 7.21-11.06 11.14-16.26ZM392.27 487.19a5.87 5.87 0 0 1-.42-1c.27.27.36.63.42 1Zm-93.8-167.99c-.03.11-.03.22-.05.33-.72-1.01-1.92-1.65-1.87-3.12 1.4.51 2.38 1.07 1.91 2.8Zm-2.5-4.16c-.26-.38-.5-.77-.73-1.17.63.13.7.65.72 1.17Zm10.08 25.28c-.02-.11-.05-.23-.06-.35.18.02.05.23.06.35Zm295.3 244.95c-.07.12-.16.22-.25.33l.25-.33Zm20.17-33.95c-.24.12-.46.23-.6.5l.4-.85c.05.12.12.24.2.35Zm-2.91 4.33c.77-1.14 1.5-2.28 2.13-3.5a46.6 46.6 0 0 1-7.6 11.76c1.81-2.76 3.62-5.52 5.47-8.26Zm-6.64 10.04c-.24.86-.62 1.62-1.4 2.1l1.4-2.1Zm-2.9 4.32c-.1.2-.21.38-.37.54l.37-.54ZM463.8 383.66c-.57-.24-.97-.7-1.37-1.13.63.23 1.09.6 1.37 1.13Zm-36.96-27.02c5.46 4.88 10.55 9.8 15.37 15.2 2.48-.89.76 1.07 5.01 2.72a5.68 5.68 0 0 0 3.97 3.13c.31 2.34 7.94 7.11 9.35 6.31-.62 1.52-.04 2.93 1.5 3.5 2.2.55 2.51 3.1 4.27 4.14 5.6 4.53 10.32 9.88 15.79 14.48.53 1.9 3.48 2.16 3.8 4.52 1.48 2.87 3.63 4.94 5.48 7.62.43.59.63 1.36 1.44 1.6 1.57.3.93 2.4 2.38 2.94 2.4.61 2.97 2.83 3.87 4.73-3.27-2.57-5.43-7.54-9.73-9.46-1.27-3.87-5.98-4.99-7.34-8.84-2.09-1.65-3.55-.82-5.83-3.8-1.93-5.57-8.62-6.22-10.65-10.78-3.63 0-3.5-4.01-5.77-5.1-1.08-.06-1.63-.8-2.21-1.45-.72-.63 1.55-1.46.89-1.91-2.65-.96-4.37-3.14-6.71-4.37-1.38-.24-2.2-.99-2.4-2.43-2.19-.73-2.1-3.63-4.75-3.77-2.49-2.03-4.27-4.87-6.84-6.54-.06-1.84-2.23-1.28-2.8-2.64-.27-1.85-2.33-1.73-3.19-2.9-1.03-4.2-5.57-4.52-7.46-7.81-1.27-2.22-3.42-3.28-4.94-5.2 2.49 2.05 5 4.07 7.5 6.1Zm-11.17-9.14c-.6-.1-1.02-.36-1.23-.97.43.31.83.63 1.23.97Zm-4.2-3.52c1.04-.18 1.54.15 1.67 1.1-.86-.44-2-.4-2.73-1.04.3.06.66.03 1.07-.05Zm-2.08-1.53c-.44-.4-.9-.67-1.1-1.29.44.35.91.74 1.1 1.29Zm-14.1-11.9c.98.07.75 1.4 1.29 1.9a5.5 5.5 0 0 1-2.47-2.4c.3.27.67.46 1.18.5Zm-2.97-2.44c.72.27 1.1.73 1.37 1.4-.7-.47-1.54-.56-1.79-1.6.15.06.3.12.43.2h-.01Zm-46.9-38.34c2.34 3.04 5.18 5.4 8.9 6.42 2.42 2.3 5.38 3.41 8.17 5.35 7.31 5.43 14.46 10.84 20.51 17.53 3.8 1.66 6.07 4.23 8.09 7.93-.5-.37-1.52.19-1.76-.74-1.78-3.44-5.56-4.92-8.51-6.83-.45-.1-1.08-.24-1.11-.64-.15-1.76-1.8-2-2.25-3.42-.48-2.17-2.61-2.15-3.92-3.4-2.23-3.03-5.8-4.08-8.4-6.21-.38-1.38-2.23-.63-2.83-1.92-1.59-1.28-2.53-3.58-4.9-3.6-2.07-.03-2.21-2-4.1-2.29-.45-.95-.87-2.17-2.06-2.28-2.77.1-3.64-2.27-5.22-3.9-1.5-.24-2.26-1.24-3.09-2.41a5.9 5.9 0 0 1 2.5.4h-.01Zm-6.85-3.34c.7.45 1.38 1 1.86 1.73-1.36-.07-2.11-1.23-3.32-1.81-.43-.53-1.54-.17-1.86-1.08-.94-1.07-3.02-.5-3.12-2.6 2.17 1.21 4.32 2.45 6.44 3.76Zm-13.54-7.57a5.5 5.5 0 0 1-.84-.21c.48-.4.93-.75.84.2Zm-4.62-2.66v.19c-.42-.3-.78-.72-.99-1.24.65-.21 1.08.16 1 1.05Zm-3.85-2.4c-.08 0-.16 0-.23-.02.09-.03.17-.03.23.02Zm59.77 621.19c11.63-18.37 23.7-39.67 38.42-57.14.3-3.57 3.93-7.54 6.45-10.7 1.1-3.51 3.96-5.44 5.6-8.72 3.97-8.28 8.26-13.1 13.93-20.72a1426.52 1426.52 0 0 0 29.82-45.74c17.27-20.79 32.95-43.8 50.28-63.75 2.28-.91 3.27-7.9 5.03-5.2-1.25 3.12-5.98 4.48-5.9 8.65-.08.71-.7 1.08-1.29 1.4-6.6 9.2-13.52 18.83-20.6 27.73-2.4 3.63-6.11 7.02-7.4 11.21-3.1 1.41-4.31 3.9-4.95 7.16-7.88 10-15.31 21.33-22.53 31.7 0 2.87-2.35 4.5-3.5 6.84-6.12 4.25-7.02 12.53-11.66 16.96-2.12 2.63-2.66 6.27-5.65 8.62-2.55 1.7-2.63 6.34-5.77 5.58-2.83 6.97-6.9 12.5-11.3 18.2-18.51 22.53-32 48.53-50.86 71.13l1.88-3.21Zm-94.22 149.55Zm-1.74 2.88c.13-.15.29-.29.45-.43l-.6 1.14a.77.77 0 0 1 .15-.71Zm-8.5 51.64c4.95-5.64 6.28-13.14 9.34-19.7 1.66-3.21 3.27-6.45 4.94-9.82 1.57-2.09-.05-5.1 2.27-6.67.71-.7-1-1.61-.37-2.35.35-.56 1.05-1.09 1.04-1.64-.1-3.24 6.02-4.31 3.94-8.2-.75-1.9 2.5-3.42 1.6-5.93.21-1.84 3.56-1.18 3.64-3.4-.03-1.38 1-2.44 1.08-3.65-.44-.73-1.28-1.54.45-1.65 2.36-2.32 2.38-6.47 3.97-9.44 2.93-7.98 8.98-14.46 10.36-22.76 3.73-4.3 6.63-9.2 8.14-14.7 12.37-27.06 32.65-49.82 48.78-73.74 6.21-5.23 8.29-14.5 13.5-20.74 1.04-1.71 3.8-1.98 3.16-4.5 0-2.7 3.4-3.6 4.2-6.22 14.13-21.54 29.76-41.23 43.29-61.57 2.77-1.7 5.38-8.25 7.37-11.81 2.52-3.19 6.26-5.68 7.55-9.74 7.5-9.18 14.1-18.53 22.35-27.01 3.38-7.5 11.05-12.2 15.06-19.45 5.68-9.59 15.78-18.44 20.91-28.95 6.23-8.88 14.4-16.46 19.51-26.3 7.98-5.64 12.8-14.75 18.26-22.45 2.17-4.01 6.49-7.07 8.09-11.54.44-2.66 2.86-3.4 3.59-5.92 4.12-2.74 4.28-8.32 8.78-11.07 1.85-3.74 5.17-6.25 6.52-10.34 1.77-2.6 3.76-5.27 4.95-8.2 6.52-4.26 7.56-12.52 12.05-18.41 2.91-2.22 3.91-4.82 5.24-7.97a10.55 10.55 0 0 0 3.22-4.64c1.8-1.52 2.76-3.77 3.6-5.99.4-1.96 2.77-2.8 2.86-5 5.16-5.03 7.17-11.74 9.69-18.15 5.65-5.37 9.27-11.88 12.14-19.12 5.71-6.2 11.25-15.54 16.44-22.2.61 2.66.93 5.31 3.7 6.68 1.7 4.73 4.8 9.23 7.46 13.88.73 1.41 3.5-.04 3.62 2.02.58 3.3.66 3.25 2.44 6.26 1.77 5.97 7 9.79 8.73 15.79 2.12 2.89 2.83 7.35 6.38 9.3 1.37.5.14 3 1.96 2.79.54-.06.91.08 1.07.47 3.35 4.68.55 5.65 3.75 9.05.4.55 2.11.08 2.26.8-.32 3.03 3.88 3.14 3.19 5.76-1.23 2.46 1.72 4.15 2.75 5.83.85.02 1.98-.24 1.1 1.23 3.64 7.47 10.88 14.26 13.8 22.67.76 3.5 5.69 4.07 5.65 8.05 5.78 11.6 14.66 21.6 21.18 33.27 6.59 9.51 10.67 20.88 18.67 29.25 2.67 4.11 3.5 9.67 7.03 13.4 4 8.54 11.31 15.85 16.65 23.96 9.5 15.45 22.6 31.75 31.4 48.91 19.55 26.5 36.56 53.66 58.8 80.28 14.94 20.4 29.31 43.71 44.78 63.86 9.77 17.16 25.68 30.4 33.57 49.34 27.48 38.22 52.86 79.16 73.32 121.27-1.13-2-3.94-.37-4.92-2.27-1.73-1.95-7.17-4.05-9.58-5.79-1.1-.73-2.68 1.95-3.53.39-2.24-3.41-6.02-4.53-8.91-7.2-5.03-.7-7.91-4.84-12.14-7.13-1.43-1.51-4.18 0-5.02-2.21-.43-.68-1.5.92-1.99.33-.99-1.57-3.03-.65-3.25-2.95-.69-2.64-3.14-2.09-4.8-1.67-.76-1.41-2-1.83-3.59-1.69-2.56-2.18 1.7-2.44-4.9-4.46-1.54 1.07-1.13.44-1.37-.98-7.52-2.76-14.13-7.95-20.74-11.95-3.44.07-5.6-3.21-7.73-5.43-9.46-4.13-18.34-10.32-27.2-16.27-6.48-4.32-12-10.51-19.42-13.22-3.95-5.31-9.3-9.25-14.66-12.99-3.19-2.73-8.33-4.74-11.49-7.76-1.32-.93-1.06-3.4-3.33-2.74-1.7-.91-2.87-2.44-4.6-3.69-13.66-9.3-24.32-23.38-36.51-32.01-1.7-1.7-2.74-3.96-5.26-4.57-2.1-3.86-7.05-7.34-10.63-8.01 1.36-3.51-3.2-3.85-4.4-6.3-5-5.4-10.13-10.45-15.62-15.44-11.56-11.4-22.98-22.89-30.92-37.47-7.56-11.83-15.93-22.76-21.45-35.03-8.62-11.43-16-23.72-20.66-37.67-19.59-34.14-38.41-69.4-59.2-102.57-9.08 1.07 18.54 34.68 19.4 39.37 1.53.97 1.56 2.38 2.52 3.71.49.26.82.63.85 1.23.53 1.6-.08 3.78 1.62 4.74.64 3.23 4.44 4.89 4.27 8.61.37 3.09 4.3 4.05 5.41 6.7.38 4.2 3.75 7.13 5.36 10.36.02 2.25 3.42 2.16 2.4 4.8-.35 1.93.8 4.4 2.96 4.05-2.1 3.48 1.33.34 1.18 2.23-.55 1.6-.84 2.98.97 3.7 1.7.73.21 3.42 2.57 3.57.58.11 1.07.31 1 1.02-.56 2.45 2.23 2.84 2.62 4.8.34 2.24 2.5 3.62 3.7 5.35.44 2.17 1 7.15 3.04 8.04.3 2.22 1.38 4.27 1.76 6.52 3.14 4.8 7.32 9.7 9.14 15.31.23 1.79 1.85 2.83 2.71 4.21 3.5 1.97 1.6 6.95 5.63 8.38.85.92.46 2.2 1.79 2.98.8 2.08 1.65 4.16 3.32 5.62 1.32 3.56 3.9 6.54 5.82 9.93-2.54-3.55-6.11-5.65-7.05-9.97-2.46-1.17-3.34-3.92-4.7-5.89-1.17-.5-1.22-1.58-1.6-2.53-4.3-6.58-10.14-11.69-14.8-18.23-13.27-26.52-31.24-50.34-43.68-77.65-7.11-15.13-14.96-29.8-21.9-44.46-7-19.74-4.55-2.49-8.31-8.73-1.73 1.73-2.2 4.73-1.99 7.3-3.6 4.58-6.4 10.72-9.22 16.37-2.3 3.8-2.55 9.1-5.45 12.3-.4.2-.3.93-.4 1.44-1.06 5.57-4.08 10.16-6.06 15.1a12.54 12.54 0 0 0-4.48 6.93c-.16 3.35-4.05 4.67-4.44 7.78.3 4.47-3.03 7.05-4.86 10.77-1.48 1.58-1.38 4.06-2.85 5.42-1.64.65-.63 2.8-1.73 3.65-2.17.8-5.16 2.61-3.44 5.05-.49.06-2.36-.32-1.54.7.4.52 1.04 1.2.14 1.33-3.6-.05-1.81 2.74-3.86 4.14-2.09.7.17 2.7-1.28 3.55-2.43.6-1.45 3.2-3 4.42-1.05.68-1.77 1.66-1.73 3 .04 1.17-1.52 1.36-1.28 2.6-1.6 1.22-5.96 4.06-5.75 6.15-5.63 3.33-7.08 9.68-11.56 14.28-.73 3.64-5.06 4.86-5.97 8.42-.38 3.94-5.66 4.05-5.4 8.23-.03.59-.56.82-1.08 1-4.06 5.32-8.24 10.36-12.56 15.88-.55.67-1.36 1.01-2.1 1.45-1.17.8-.53 2.8-2.24 3.13-1.87 2.54-4.86 4.84-6 7.81-.66 1.54-3.88 1.2-3.7 3.72-.32 1-.4 2.7-1.35 3.23-7.2 5.32-10.46 14.35-17.73 19.65-1.85 6-7.7 9.16-11.3 14.36-.86 1.67-.67 4-3.13 4.28-1.82 1-1.77 4.05-3.73 5.25-.89.99-3 .6-3.06 2.37-.1 1.05-1.72 3.57-2.69 2.2-2-1.94-5.78 9.85-8.8 9.73l-1.06 1.74c-3.96 1.62-4.71 6.78-9.01 8.29-1 .65-1.07 2.4-2.16 2.7a2.3 2.3 0 0 0-1.9 1.56c-.54 1.98-3.32 1.66-3.83 3.79-1.2 1.96-4.41 1.75-5.43 4.18-.23.36-1.14.1-1.3.66-1.1 3.3-4.57 4.23-7.07 6.16-3.27 3.18-7.05 6.12-10.4 9.12-1.07 3.42-4.9 3.68-7.16 5.98-4.87 3.75-10.44 9.61-14.98 13.17-1.2.56-2.84.48-3.1 2.34-.04.28-.49.44-.82.52-4.72 1.26-7.6 5.58-11.07 8.31a18.14 18.14 0 0 0-9.26 4.72c-2.78 1.88-6.23 2.64-7.93 5.95-.55 1.32-2.45.44-3 1.63-1.62 2.88-6.11 2.35-7.51 5.55-.54 1.28-1.46 1.82-2.8 1.96-.62 1.11-1.88 1.75-3.33 1.86-2 1.6-2.96 4.25-5.95 4.42-2.49 1.89-5.88 2.62-7.75 5.32-2 2.12-5.07 3.21-6.85 5.58-6.14.57-8.85 6.98-13.76 9.81-1.55 1.16-4.11.38-4.6 2.8-.22.75-.78 1.15-1.41 1.41-.6.25-1.5-.02-1.8.79-.33.88-1.67.5-1.84 1.59-1.82.49-3.04 1.88-4.22 3.33-.77 1.47-2.87.99-3.43 2.8-2.3 1.97-5.85 1.94-7.44 5.04-.6 2.2-3.03 2.74-3.5 5.08-.9.89-2.85.46-3.63 1.72-.8 1.2-2.88.64-3.37 2.08-2.92.91-4.53 3.24-6.14 5.75-.74-.92-1.54-1.91-.54-2.9h.01Zm675.1-118.43c.79.9 1.37 1.93 1.8 3.07-.38-1.3-1.7-1.74-1.8-3.07Zm37.38 108.88c.96-.25 1.5.28 1.88 1.16-.7-.27-1.4-.57-1.88-1.16ZM765.12 926.23c-.11-.1-.22-.2-.34-.28a4 4 0 0 1 .34.28Zm41.27 41.24-.85-.72c.38.14.64.4.85.72ZM662.54 790.85c-1.96 1.2.8 2.38.37 2.91-1.3-.3-1.21-.23-1.62.26-.16.2-1.07-.2-.61.5-1.84-.44.39 1.63-1.1 1.46-.55-.15.04.6-.74.27-.57-.24.25.65-.3.48-.93-.03-1.16.56-.42 1.54.3.42-.23.2-.57.13-.38-.1 1.12 1.1.8 1.06-.14.02-.56-.13-.43.08.88 1.36-2.47-1.08-1.8.43-.05.1 1.28 1.2 1.03 1.2-.85-.25-.81.14-.25.92.29.58-2.42-1.22-2-.47.03.25.42.76-.12.61.19.43 1.86 1.59.23.65-.17-.1-.42-.21-.4-.18.34.57-.59.24-.36.7 1.13 2.24-3.17 3.37-2.35 4.02 1.17 1.79-.1.63-.75 1.54-.85-.16-1.14-.13-.65.79-1.23-.1 1.02 1.73-1.95.8-.68-.32.49 2.06-1.35 1.6.1 2-.95.14-1.41.8.4 3.37-2.32-.66-1.23 2.24.15.3-.11.15-.4-.03-.47-.09.41.71-.88.26.5.95-.78-.16-.27.8.09.15-.15.01-.28-.04-.88-.41-.5.36-.51.68-1.3-.42-.98.99-2.18.14-.53-.07.58 1.25-.46.58-.74-.44-.12.98-1.33.61-.43-.12-.03.59.05.88-1.5-.9-1.56-.72-.95.83.4.8-1.05-.3-1.09.19-.85.38-1.02 1.08-1 1.71-1.6-.88-.91 1.66-2.55.86-.61-.15.9 1.76.25 1.64-.06.07-.28-.11-.2.15-.08-.07-.22-.23-.22-.21-.6.69-1.72.72-.99-.17.36-.42.48-.63-.11-.4-1.14.33-.76-.4.04-.8 2.03-1.11-.69-.32-.84-1.1-.38-.43-1.96.54-.85-.77l-.6-.04c.67-.84.34-.99-.55-.75.19-.46-.94-.03-.28-.81-.65 0 .65-1.11-.91-.74 1.13-1.27-.53-.29-.3-.91.8-1.05-.7-.26-.53-.76 1.04-1.42-.05-.92.26-1.74-1.64.52-.79-.77-.84-1.58.23-.41-.82.05-.55-.42.24-.42-.08-.48-.16-.7-.06-.15.13-.47-.36-.33-1.03.36.38-.81-.45-.7-1.92.49-.45-.37-1.04-.64.5-1.04-.97-2.57-2.15-2.45-.43.08-.5-.13-.49-.36.02-.27.55-.88-.29-.58.1-.36.86-1.17-.39-.62-.19.08-.12-.07-.04-.2 1.15-1.64-.7-1.03-.76-1.75.44-.62-1.15.12-.83-.34 1.9-3.65.23-1.27.07-2.84.8-1.78-1.9-.45-1.23-1.44.52-.78-.94.45-.55-1.18.58-1.2-2.22.43-1.14-.92-1.22.15-.26-.14-.12-.79-1.36-.3-1.56.38-.94-1.4-1.41.26.69-1.5-1.12-1.04-.24.06-.45.1-.3-.12.21-.33-.36-.12-.26-.38.08-.23-.76.15-.38-.3.39-.46-.53 0-.6-.16 1.98-2.81-1.72-1.1-1.95-2.53-.17-.47 1.33-1.64-.26-1.04-.46.17-.54.07-.48-.13.05-.18.6-.67.13-.52-.5.17.3-.58-.43-.26.08-.24.51-.7-.03-.54-.58.18.06-.49-.7-.19-.85.24.56-.9-.66-.55-.35.04-.36-.14-.05-.54 1.41-1.54-1.8-1.12-2.67-1 .88-1.47-.2-.81.53-1.82.38-.5-.82.2-.2-.52 1.23-1.52-1.6-.02-1.5-.9-.1-.42-.18-.83-.9-.8.33-.9 1.64-1 1.6-2.09.35-1.7 2-2.73 2.34-4.47-.08-1.1 1.19-1.7.9-2.94 0-1.63 2.11-2.37 1.78-4.22 1.22-2.87 4.4-4.63 4.36-8.21.33-4.44 4.47-7.98 5.22-12.53 5.13-5.75 8.65-16.09 13.48-22.5-3.35-3.7-5.95 3.35-7.87 5.67 2.03-4.31 4.28-8.25 6.09-12.58 5.08 14.06 11.18 27.27 19.18 39.45-.09 3.64 2.37 6.15 4.2 9.13.2 2.34.83 4.7 2.42 6.44 3.37 2.93 2.6 7.76 6.3 10.58.9 2.02 2 2.22 2.11 4.52.18.31-.09.3-.5.18-1-.33-1.2 0-.5 1.02.18.27-.07.23-.43.08-1.4-.67.13 1.04-.96.67l.03-.01Zm-61.33-3.63c.07.12-.07.07-.16.08.05-.02.12-.13.16-.08ZM446.71 981.4c-6.13 6.83-15.36 11.8-20.43 19.79-14.32 9.49-26.26 23.81-40.82 32.18-10.85 8.59-20.32 17.83-32.94 24.03-12.97 8.92-25.23 18.27-38.5 26.83 1.3-.65.39-2.27.94-2.98 1.57-.18 2.39-1.14 2.82-2.66.7-1.27 3.18.96 3.9-.67.53-.63.77-1.6 1.76-1.71.55-.62-.9-2.53.98-1.47.76.1 2.49-1.46 3.18-2.05 4.4-6.69 13.43-8.38 17.31-15.04 2.6-1.22 6.04-1.89 7.54-4.57 13.13-11.57 29.45-20.83 42.37-32.49a27.2 27.2 0 0 0 11.57-7.56c6.2-2.16 9.05-8.8 14.54-12.3 2.55-.97 3.3-1.08 3.83-4.13 9.44-4.23 16.25-14.96 25.54-19.67-.62 2.01-2.43 2.76-3.58 4.47Zm-171.24 123.32c-.4-1-.17-1.61.6-1.8 3.02-.83 5.22-2.32 7.44-4.44 3.12-.4 3.26-4.22 6.15-4.91 1.04-.16 1.26-1.48 2.53-1.42.93.05.89-1.43 1.9-1.51 3.37-.32 3.7-4.66 6.48-5.18.78-.11-.26-1.73.46-1.93 1.83-.26 1.76-2.46 3.93-1.72 2.62.48 3.12-2.05 3.35-3.67 2.55.41 2.17-3.61 4.37-2.77 2.2 1.25 3.26-1.39 4.5-2.34-.1-.79-.5-1.86.88-.97 3.68-1.34 6.38-5.84 10.3-7.75-3.79 2.66-5.51 7.68-10.2 8.94-3.24.54-1.66 3.08-5.69 4.52-1.84 1.79-4.43 2.69-5.88 5.12-.1.48-.6.94-1.08 1-2.14.27-2.06 3.17-4.32 3.27-4.92.99-6.1 6.89-9.4 9.52-2.23.58-4.44 2.07-6.04 3.45-2.03 1.22-4.33 1.71-5 4.46-4.05 3.09-8.33 5.42-12.28 8.38.2-3.37 7.64-4.91 7-8.25Zm197.04-158c.55.08 1.1.17 1.64.23a21.08 21.08 0 0 1-3.89 4.74c.6-2.06 2.85-2.96 2.25-4.97Zm117-147.7-.47.04c.13-.3.26-.6.4-.88.2.3.32.54.06.83Zm5.4-10.53.42-.57c.01.5.19.9-.55.76l.14-.19Zm-13.78 25.57c.37-.7.58-1.48.9-2.19-.1.83-.03 1.85-.9 2.2ZM453.39 974.01c-.21.63-.63.93-1.22 1.15.38-.42.75-.87 1.22-1.15Zm111.87-136.7c-.6 1.1-1.3 2.13-2.14 3.07a20.8 20.8 0 0 1 2.14-3.07Zm14.57-21.72-.1.2.1-.2Zm-7.2 7.76c.08.19-.03.23-.19.3l.2-.3Zm-5.35 6.18c.39 1-.68 1.1-1.24 1.6.4-.54.81-1.07 1.24-1.6Zm-5.61 6.84c-1.74 5.53-5.66 10.43-9.21 14.7-1.01 3.57-2.84 6.09-5.54 8.4-.96 1.03 0 3.33-1.7 3.77-.72 1.54-2.1 2.53-2.9 3.92-.1 1.28-1.94 1.45-1.74 2.96.04.27-.42.48-.7.67-3.03 3.84-6.05 7.99-9.39 11.5-1.38 2.35-4.1 5.38-6.19 7.57-1.66 2.33-.72 2.8-3.88 4.2-1.9 4.22-.84 4.02-4.9 7.28-4.9 6.77-10.77 12.9-15.98 18.95-1.63 5.85-9.23 7.9-11.2 13.75.05 2.57-2.95 2.13-3.9 3.6-.22 3.83-4.5 4.03-5.86 6.5-.16 1.16-.99 1.79-1.73 2.45-4.67.68 8.84-10.76 9.32-13.02 8.12-7.62 13.91-18.1 20.36-26.53 13.52-14 25.4-30.73 37.37-45.17 7.29-7.68 10.5-18.35 17.98-26.31-.12.24-.18.52-.22.8Zm-.27 6.95a6.1 6.1 0 0 1-.94 1.64c.3-.55.62-1.1.94-1.64Zm-91.92 109.61c-.36 1.27-1.07 2.1-2.23 2.46.79-1 1.6-1.97 2.43-2.94-.08.15-.15.31-.2.48Zm-3.98 4.32c-.5.1-.93.26-1.32.47.17-.88 1.24-.64 1.75-1.13l-.43.66Zm-3.52 3.4c-1.04.5-1.48 1.7-2.39 2.34.29-1.3 1.43-1.75 2.42-2.44l-.03.1ZM307.72 1088c-.67-1.41 1.06-1.08 1.48-1.77.48-1.69 2.12-1.12 3.49-1.22-1.7.93-3.32 1.98-4.97 3v-.01Zm23.1-25.32c1.1-.73 2.16-1.56 3.4-2.05-.6 1.49-1.83 2.18-3.4 2.05Zm7.21-5.09c.56-.77 1.05-1.76 2.07-1.88-.36 1.05-1.23 1.33-2.07 1.88Zm249.22-256c.42-.53.98-.98 1.36-1.51.5.72-.73 1.38-1.36 1.5Zm4.54-7.35c.2-.38.38-.76.56-1.14-.16.38-.12 1.01-.56 1.14Zm40.59 30.32.2-.3c-.06.7-.92 1.61-.2.3Zm-31.12-36.53c.04-.1.05-.17.17-.18-.07.19-.22.44-.24.6-.05-.09-.04-.22.07-.43Zm38.4 49.67-.28.08c.03-.1.21-.07.29-.08Zm2.4-15.89c-1.1-.07.03.65-.27.9-1.22-.18-1.11.37-.97.92-.81.61.07 1.07.04 1.85-.3 2.59-2.96.6-.43 2.92-1.71-1.15-3 7.62-3.7 4.64l-1.32.42c2.62-1.87.56-.88.43-2.2.06-.36.16-.74-.14-.88-1.02-2.22-1.98.1-.91-2.45 1.56.78.5-.98 1-1.54 1.67-1.1.7-2.46 1.58-1.92.29.14.27-.08.03-.51-.17-.31-.22-.5.09-.3 1.1.57 1.75-.93 2.4-1.62.24-1 1.31-.16 1.75-.61.17-.72.74.17.43.37v.01Zm2.24-1.38c-1.3-.32-.75.64-2.04.6.88-.24 1.45-.9 2.07-1.5.06.3.82 1.04-.03.9Zm17.41-19.28c-.07-.22 0-.32.2-.32.12.29.2.51-.2.32Zm1.33-2.88c.06-.13-.77-.93-.1-.69.56-.04.76.99.1.7Zm3.52-4.2c.12-.15-.48-1.02.02-.8 1.86-.46 1.17.55 1.45 1.96a7.2 7.2 0 0 0-1.47-1.15ZM738 896.68c.2.05.25.17.29.34l-.3-.33Zm4.5 5.34c1.06.22 1.3 1 1.52 1.9-.5-.64-1.02-1.26-1.53-1.9Zm4.6 6.3c-.97-.1-1.06-1-1.25-1.77l1.65 1.91c-.12-.05-.26-.1-.4-.13Zm4.69 4.64c-.9-1.29-2.91-1.42-3.1-3.17 1.15 2.04 3.96 2.54 4.53 4.77-.48-.54-.95-1.08-1.43-1.6Zm5.93 6.66-.37-.42c.68.65 1.44 1.23 2.04 1.93-.73-.24-1.17-.93-1.67-1.5Zm18.31 18.28a7.57 7.57 0 0 1-.8-.7c.97.34 1.74.62 1.9 1.82-.33-.41-.68-.8-1.1-1.12Zm8.29 9.25-1.74.14c1.5-3.44-3.13-4.05-4.24-6.52 3.57.7 3.88 4.7 6.28 6.16 1.18.2 1.8 1.06 2.48 1.84.65 1.53-2.96-.37-2.78-1.62Zm11.41 10.2c-.49-1-2.16-.75-2.67-1.58 1.4.66 3 1.03 3.45 2.66-.25-.36-.52-.72-.78-1.07Zm2.52 3.3c-.65-.24-.8-.94-1.18-1.44.61.3 1.69.9 1.75 1.67l-.57-.23Zm2.98 2.48c.42.21.97.22 1.2.68-.69.15-1.1.09-1.2-.68Zm2.48 1.68c.68.45 1.34.9 1.61 1.77a8.6 8.6 0 0 1-1.6-1.77Zm118.08 94.12c-6.63-7.31-16.55-10.12-24.63-16.31-9.5-5.7-16.85-14.5-26.75-19.13-2.9-1.85-4.52-5.95-7.64-7.72-1.68-.47-1.83-2.57-3.74-2.62-1.76-1.3-2.66-3.71-5.1-4.32-3.16-2.73-8.4-4.96-11.5-8.04-10.26-9.22-24.3-18.99-33.7-30.9 1.86.33 1.53 2.53 3.29 2.98 2.03.41 2.05 3.22 4.25 3.57 2.12 1.03 2.3 4.33 4.88 5.1 1.14 2.03 4.42 2.05 5.42 4.56 2.41 2.99 5.48 4.91 8.3 7.57.87 1.56 2.88 1.2 3.72 2.64.82 2.07 3.37 1.68 4.87 2.84 1.39 1.73 2.82 3.49 4.65 4.8 6.42 5.07 13.74 8.65 19.67 13.78 4.02 3.45 8.5 7.23 13.45 9.42 2.87 3.95 6.18 6.75 10.19 9.34 2.48 3.43 6.99 3.83 9.56 6.73 3.33.53 4.5 4.97 8.07 5.17 2.28.13 2.66 2.25 4.77 2.65.6 1.05 1.18 2.36 2.5 2.52 3.98.57 5.88 4.33 9.14 6.14-1.24-.11-2.58-.21-3.67-.77Zm8.2 4.12a9.87 9.87 0 0 1-1.64-1.22c2.5.64 4.58 2.21 6.77 3.56 1.12 1.19 3.39.67 3.7 2.85a302.67 302.67 0 0 1-8.84-5.19Zm16.24 9.62c.24.02.47.04.7.09-.33.21-.6.29-.7-.09Zm6.4 4.03c-.61.08-.94-.71-.88-1.41.6.37 1.19.77 1.6 1.38-.24 0-.47 0-.72.03ZM832.26 797.61c1.63 2.44 2.53 5.36 5.2 6.9 1.04 5.31 6.73 7.78 8.82 12.2 4.21 4.12 7.88 14.39 14.12 19.5 12.65 20.5 30.04 37.34 40.96 59.23 8.97 14.76 19.12 28.48 26.58 43.5 9.3 12.97 18.58 26.08 24.62 41.27-18.73-24.67-34.2-52.5-50.7-77.96-14.78-19.87-29.29-40.18-41.5-62.49-5.8-8.48-11.38-15.99-17-24.86-1.7-3.8-7.47-6-6.79-9.23-1.46-3.37-4.64-5.63-5.78-9.25.44.43.93.82 1.47 1.18Zm-2.7-2.87c-.47-.6-.9-1.24-1.3-1.9 1.17-.08.83 1.2 1.3 1.9Zm-4.56-6.2c-.5-.36-.94-.58-1.04-1.3l1.04 1.3Zm-6.92-10.51c-.46-.53-1.18-.85-1.26-1.6.36.57.84 1.06 1.26 1.6Zm-23.4-34.64c5.1 11.51 15.91 20.41 21.61 31.75-9.15-10.14-16.02-21.3-23.38-32.65.64.13 1.18.58 1.76.9Zm-4.36-4.62a164.5 164.5 0 0 0-1.87-2.6c.34.47 1.65 2.1 1.87 2.6Zm-6.5-116.57c-.14.1-.3.17-.48.24-.16-1.34.84-2.4 1.62-3.17-.39.91-.07 2.38-1.14 2.93Zm7.54-11a9.3 9.3 0 0 1-5.25 7.01c1.23-1.94 3.33-3.48 3.37-5.97.1-1.13 2.17-1.02 1.92-2.4-.42-2.04 1.42-2.13 2.83-2.74-.97 1.36-1.92 2.73-2.87 4.09Zm169.3-233.5a4.31 4.31 0 0 0-2.41 4.4c.03.56-.46.8-.96.99-.59 1.45-1.9 2.41-2.6 3.74-.03 1.22-1.82 1.38-1.53 2.82-1.34 1.17-2.57 2.28-2.77 4.18-2.55 1.66-2.94 4.99-5.7 6.29-1.06.81-.22 2.68-1.86 3.08-.46.19-.9.54-1 .97-.5 3.02-4.18 4.12-4.02 7.24-2.65.86-3.28 2.58-3.42 5.21-5.92 6.23-9.15 14.84-15.33 21.09-.99 6.05-6.08 9.14-8.85 14.6-.33 4.06-1.13 3.05-3.31 5.35.51 3.75-3.5 4.4-4.32 6.96.09 1.13-.59 1.82-1.18 2.56-.53.87-1.67-1.31-2.05-.54-.6 2.91-2.6 5.06-3.56 7.7.14 2.33-2.58 2.52-2.84 4.69-3.48 2.02-3.24 7-7.02 9.04-.53.8-.85 1.69-1.05 2.65-.9.4-1.87.85-1.95 1.95-.1 1.94-2.78 2.09-2.81 4.18-.73 2.02-3.85 2.32-4.3 4.76-.14.38-1.06.28-1.08.84-.29 3.29-3.36 4.75-5.3 6.98-1.2 2.6-3.93 4.52-5.13 7.2.04 1.69-2.2 1.68-2.42 3.32-.1 3.43-3.67 4.4-5.22 7.01-1.48 2.43-6.25 7.85-6.81 10.73-.93 3.24-5.3 4.46-5.65 7.75-3.86 2.73-6.08 7.23-8.3 11.06a15.62 15.62 0 0 0-7.05 6.7c-3.15 2.33-4.39 6.12-6.64 8.84-1.44.46-.72 2.32-2.09 2.97-1.37 1.66-3.76 2.63-3.97 5.08-.15 2.12-2.23 2.27-2.63 4.2-3.48.85-2.28 5.44-5.77 6.52-1.66 2.38-4.53 3.94-5.37 6.9-.34 1.23-1.48 1.84-2.13 2.97-.6.42-.36 1.58-1.32 1.84-.95.27-.6 1.44-1.1 2.03-.52.96-1.91.85-2.7 1.37.86-.83.69-1.36-.01-2.43.44 0 2.3.41 1.46-.56-.4-.52-1.05-1.2-.19-1.26 1.6-.12 2.9-.4 2.61-2.18-.22-1.69 2.76-1.46 1.72-3.49-.18-.54-.25-1.02.37-1.21 2.36-.5 1.25-2.9 2.73-3.98.99-.58 1.64-1.46 1.54-2.71.62-3.26 6.61-5 6.4-7.86 1.74-1.1 2.9-2.66 4.63-3.82 1.7-3.02 3.02-6.54 5.76-9.12.5-3.38 4.59-4.39 5.23-7.72.1-3.7 5.2-3.66 4.63-7.6-.03-.54.47-.76.96-.92.7-1.57 1.89-2.2 2.64-3.53.05-1.19 1.83-1.27 1.56-2.68 1.32-1.07 2.58-2.17 2.77-4 2.53-1.53 2.94-4.78 5.67-5.95 1.06-.77.23-2.62 1.86-2.96.45-.16.9-.5 1-.9.4-2.84 3.89-3.7 3.96-6.5.44-1.45 3.61-1.18 3.15-3.56-.3-2.72 2.02-3.4 3.3-5.24 4.24-5.63 6.9-12.06 12.04-16.96.69-6.2 7.41-9.49 8.79-15.56-.57-2.44 2.33-2.32 2.91-3.83-.6-3.64 3.4-4.3 4.14-6.77 2.43-7.32 1.01 3.93 5.76-7.79 1.18-1.52.34-4.01 2.75-4.55.38-2.33 3.32-2.77 3.07-5.43 1.28-2.94 4.58-4.48 5.14-7.8 2.02-.47 1.56-2.7 3.25-3.52 2.9-4.76 6.98-8.38 10.52-12.73.15-.37 1.06-.22 1.1-.77.4-3.24 3.46-4.49 5.46-6.6 2.82-4.31 7.11-7.68 8.73-12.65 6.6-4.7 10.06-12.92 14.8-19 .95-.75 2.51-.99 2.2-2.76 2.06-1.7 4.53-3.36 5.34-6.19.5-1.43 2.2-1.67 2.26-3.37.1-.46.25-1.1.66-1.16 2.08-.6 2.76-2.4 4.73-3.06a3.93 3.93 0 0 1-1.88 2.46Zm61.07-92.35.31-.58c-.02.25-.05.47-.31.58Z"/></g><defs><filter id="a" width="1284.63" height="1376" x=".53" y="0" color-interpolation-filters="sRGB" filterUnits="userSpaceOnUse"><feFlood flood-opacity="0" result="BackgroundImageFix"/><feColorMatrix in="SourceAlpha" result="hardAlpha" values="0 0 0 0 0 0 0 0 0 0 0 0 0 0 0 0 0 0 127 0"/><feOffset/><feGaussianBlur stdDeviation="120"/><feColorMatrix values="0 0 0 0 0.835294 0 0 0 0 1 0 0 0 0 0 0 0 0 1 0"/><feBlend in2="BackgroundImageFix" result="effect1_dropShadow_293_3952"/><feBlend in="SourceGraphic" in2="effect1_dropShadow_293_3952" result="shape"/></filter></defs></svg>